<svg width="100" height="100" viewBox="0 0 100 100" fill="none" xmlns="http://www.w3.org/2000/svg">
<path d="M8.09082 28.1141C8.09082 24.544 8.09082 22.7589 8.37136 21.272C9.60635 14.7264 14.7264 9.60635 21.272 8.37136C22.7589 8.09082 24.544 8.09082 28.1141 8.09082C29.6783 8.09082 30.4604 8.09082 31.2121 8.16113C34.4527 8.46416 37.5266 9.73742 40.0323 11.8146C40.6135 12.2964 41.1665 12.8494 42.2725 13.9555L44.4986 16.1814C47.7987 19.4815 49.4488 21.1316 51.4246 22.2309C52.5099 22.8348 53.6616 23.3117 54.8562 23.6522C57.0305 24.272 59.3639 24.272 64.0309 24.272H65.5427C76.1916 24.272 81.5156 24.2721 84.9767 27.3848C85.2951 27.6711 85.5981 27.9741 85.8841 28.2924C88.997 31.7532 88.997 37.0776 88.997 47.7263V56.6345C88.997 71.8902 88.997 79.5184 84.2575 84.2575C79.5184 88.997 71.8902 88.997 56.6345 88.997H40.4533C25.1975 88.997 17.5696 88.997 12.8302 84.2575C8.09082 79.5184 8.09082 71.8902 8.09082 56.6345V28.1141Z" fill="url(#paint0_linear_1807_951)"/>
<path d="M80.9058 25.2327C80.9025 24.0298 80.8851 23.3117 80.803 22.6878C80.0862 17.2421 75.801 12.9568 70.3552 12.2398C69.5664 12.136 68.627 12.136 66.7484 12.136H40.4053C40.8742 12.5564 41.4021 13.0844 42.2731 13.9554L44.4992 16.1813C47.7994 19.4814 49.449 21.1314 51.4252 22.2308C52.5105 22.8347 53.6618 23.3116 54.8564 23.6521C57.0312 24.2719 59.3645 24.2719 64.0316 24.2719H65.5433C72.7399 24.2719 77.5049 24.2719 80.9058 25.2327Z" fill="white"/>
<path fill-rule="evenodd" clip-rule="evenodd" d="M49.5547 40.4529C49.5547 38.7773 50.9131 37.4189 52.5887 37.4189H72.8152C74.4908 37.4189 75.8492 38.7773 75.8492 40.4529C75.8492 42.1285 74.4908 43.4869 72.8152 43.4869H52.5887C50.9131 43.4869 49.5547 42.1285 49.5547 40.4529Z" fill="#EFEFEF"/>
<defs>
<linearGradient id="paint0_linear_1807_951" x1="88.997" y1="48.544" x2="8.09082" y2="48.544" gradientUnits="userSpaceOnUse">
<stop stop-color="#FE6539"/>
<stop offset="1" stop-color="#FF5978"/>
</linearGradient>
</defs>
</svg>
