<svg width="48" height="48" viewBox="0 0 48 48" fill="none" xmlns="http://www.w3.org/2000/svg">
<rect width="48" height="48" rx="24" fill="#EFEFEF" fill-opacity="0.5"/>
<path d="M29.05 32.28C28.07 33.23 27 33.08 25.97 32.63C24.88 32.17 23.88 32.15 22.73 32.63C21.29 33.25 20.53 33.07 19.67 32.28C14.79 27.25 15.51 19.59 21.05 19.31C22.4 19.38 23.34 20.05 24.13 20.11C25.31 19.87 26.44 19.18 27.7 19.27C29.21 19.39 30.35 19.99 31.1 21.07C27.98 22.94 28.72 27.05 31.58 28.2C31.01 29.7 30.27 31.19 29.04 32.29L29.05 32.28ZM24.03 19.25C23.88 17.02 25.69 15.18 27.77 15C28.06 17.58 25.43 19.5 24.03 19.25Z" fill="#464646"/>
</svg>
