<svg width="17" height="16" viewBox="0 0 17 16" fill="none" xmlns="http://www.w3.org/2000/svg">
<path fill-rule="evenodd" clip-rule="evenodd" d="M16.5 8C16.5 12.4183 12.9183 16 8.5 16C4.08172 16 0.5 12.4183 0.5 8C0.5 3.58172 4.08172 0 8.5 0C12.9183 0 16.5 3.58172 16.5 8ZM9.5 4C9.5 4.55228 9.05228 5 8.5 5C7.94771 5 7.5 4.55228 7.5 4C7.5 3.44772 7.94771 3 8.5 3C9.05228 3 9.5 3.44772 9.5 4ZM7.5 7C7.08579 7 6.75 7.33579 6.75 7.75C6.75 8.16421 7.08579 8.5 7.5 8.5H7.75338C7.91332 8.5 8.03213 8.6481 7.99743 8.80423L7.53829 10.8704C7.29542 11.9633 8.12706 13 9.24662 13H9.5C9.91421 13 10.25 12.6642 10.25 12.25C10.25 11.8358 9.91421 11.5 9.5 11.5H9.24662C9.08668 11.5 8.96787 11.3519 9.00257 11.1958L9.46171 9.12963C9.70458 8.03673 8.87294 7 7.75338 7H7.5Z" fill="#989898"/>
</svg>
