<?xml version="1.0"?>
<svg width="169" height="60" xmlns="http://www.w3.org/2000/svg" xmlns:svg="http://www.w3.org/2000/svg">
 <defs>
  <clipPath id="clip0_1647_1018">
   <rect fill="white" height="27.36" id="svg_1" transform="translate(0 16)" width="169"/>
  </clipPath>
 </defs>
 <g class="layer">
  <title>Layer 1</title>
  <g clip-path="url(#clip0_1647_1018)" id="svg_2">
   <path d="m27.85,39.1l2.07,0c0.03,0 0.07,0 0.1,0c0.03,0 0.06,0.01 0.07,0.03c0,0.02 0.01,0.03 0.01,0.04c0,0.01 0,0.02 0.01,0.03l0,0.05c0,0 0,0.05 0,0.07c0,0.02 0,0.05 0,0.06c0,0.03 0,0.05 0,0.07c0,0.02 0,0.04 0,0.07c0,0.01 0,0.03 0,0.06c-0.01,0.04 -0.03,0.06 -0.05,0.07c-0.02,0.02 -0.04,0.02 -0.06,0.02l-1.21,0c0,0 -0.05,0 -0.08,0c-0.03,0 -0.07,0 -0.1,0c-0.03,0 -0.06,0 -0.08,0.01c-0.03,0 -0.05,0.01 -0.06,0.02c-0.02,0.02 -0.03,0.04 -0.04,0.07c0,0.02 -0.01,0.06 -0.01,0.09l0,0.39c0,0 0.02,0.04 0.02,0.06c0,0.02 0.02,0.03 0.03,0.04c0.02,0.01 0.04,0.02 0.06,0.02c0.03,0 0.05,0 0.08,0l1.01,0c0,0 0.05,0 0.08,0l0.09,0c0.02,0 0.06,0 0.08,0c0.03,0 0.05,0.01 0.06,0.02c0.01,0.01 0.02,0.03 0.03,0.05c0,0.03 0.01,0.06 0.01,0.09l0,0.1c0,0.03 0,0.06 0,0.08l0,0.07c0,0 0,0.04 -0.01,0.05c0,0.02 -0.02,0.04 -0.04,0.06c-0.01,0.01 -0.03,0.01 -0.06,0.02c-0.02,0 -0.05,0 -0.08,0c-0.04,0 -0.07,0 -0.1,0c-0.03,0 -0.06,0 -0.08,0l-0.87,0c-0.04,0 -0.07,0 -0.1,0c-0.03,0 -0.07,0 -0.09,0c-0.03,0 -0.06,0.01 -0.08,0.03c-0.02,0.01 -0.03,0.03 -0.04,0.06c0,0.01 0,0.02 0,0.04l0,0.47c0,0.04 0,0.07 0,0.1c0,0.02 0.02,0.05 0.04,0.06c0.01,0.01 0.02,0.01 0.03,0.02c0.02,0 0.03,0 0.05,0.01l0.04,0c0,0 0.03,0 0.05,0c0.01,0 0.03,0 0.05,0l1.33,0c0,0 0.05,0 0.06,0.02c0.03,0.01 0.04,0.02 0.05,0.04c0.01,0.02 0.01,0.04 0.01,0.06c0,0.02 0,0.04 0,0.07l0,0.2c0,0.04 0,0.07 0,0.1c0,0.03 -0.02,0.06 -0.04,0.07c-0.02,0.02 -0.05,0.02 -0.07,0.02l-2.11,0c-0.04,0 -0.08,0 -0.11,0c-0.04,0 -0.06,-0.02 -0.07,-0.04c-0.01,-0.03 -0.02,-0.05 -0.02,-0.07l0,-2.97c0,-0.02 0,-0.04 0.02,-0.06c0.01,-0.02 0.03,-0.04 0.07,-0.05c0,0 0.01,0 0.02,0c0,0 0.01,0 0.01,0l0.02,0.01z" fill="#ffffff" id="svg_3"/>
   <path d="m31.69,39.1l0.37,0c0.03,0 0.06,0 0.09,0c0.04,0 0.06,0 0.09,0.01c0.03,0.01 0.05,0.03 0.07,0.06c0.02,0.02 0.03,0.04 0.05,0.07l0.16,0.25c0.11,0.18 0.21,0.34 0.32,0.51c0.1,0.17 0.2,0.34 0.31,0.51c0.05,0.08 0.1,0.16 0.15,0.24c0.05,0.09 0.1,0.17 0.16,0.25c0.01,0.02 0.02,0.03 0.03,0.05c0.01,0.02 0.03,0.03 0.04,0.05c0,0 0.01,0.01 0.02,0.01c0.01,0.01 0.03,0.01 0.03,0c0.02,0 0.03,-0.02 0.03,-0.04c0,-0.02 0,-0.04 0.01,-0.06c0,-0.02 0,-0.05 0,-0.07c0,-0.03 0,-0.05 0,-0.08l0,-1.49c0,0 0,-0.03 0,-0.04c0,-0.02 0,-0.03 0,-0.05l0,-0.04c0,-0.05 0.01,-0.08 0.03,-0.1c0.01,-0.02 0.03,-0.03 0.05,-0.04c0.03,0 0.06,0 0.09,0l0.34,0c0,0 0.05,0 0.07,0.01c0.04,0.01 0.06,0.04 0.06,0.08c0,0.04 0,0.08 0,0.13l0,2.75c0,0.03 0,0.07 0,0.1c0,0.03 0,0.05 -0.01,0.07c-0.01,0.02 -0.03,0.03 -0.05,0.03c-0.01,0 -0.03,0.01 -0.06,0.02l-0.48,0c0,0 -0.05,0 -0.06,-0.01c-0.04,-0.02 -0.06,-0.04 -0.08,-0.06c-0.01,-0.03 -0.04,-0.05 -0.05,-0.09c-0.03,-0.03 -0.06,-0.08 -0.08,-0.12c-0.03,-0.04 -0.06,-0.09 -0.08,-0.13l-0.67,-1.07c-0.05,-0.07 -0.08,-0.14 -0.13,-0.21c-0.04,-0.06 -0.08,-0.12 -0.12,-0.19c-0.02,-0.03 -0.03,-0.05 -0.05,-0.08c-0.03,-0.03 -0.05,-0.05 -0.08,-0.05c-0.03,0.02 -0.04,0.05 -0.04,0.08c0,0.02 0,0.06 0,0.1l0,1.56c0,0 0,0.03 0,0.04c0,0.02 0,0.03 0,0.05l0,0.04c0,0.05 -0.01,0.09 -0.02,0.11c-0.02,0.02 -0.04,0.02 -0.06,0.03c-0.03,0 -0.06,0 -0.09,0l-0.34,0c0,0 -0.05,0 -0.07,-0.01c-0.03,-0.02 -0.05,-0.04 -0.06,-0.08c0,-0.04 -0.01,-0.09 -0.01,-0.14l0,-2.83c0,-0.04 0.01,-0.06 0.03,-0.08c0.01,-0.03 0.03,-0.04 0.06,-0.05c0.01,0 0.01,0 0.02,0c0.01,0 0.01,0 0.02,0l-0.01,0z" fill="#ffffff" id="svg_4"/>
   <path d="m37.19,39.02c0.3,-0.01 0.55,0.04 0.76,0.16c0.2,0.11 0.36,0.26 0.48,0.44c0.05,0.09 0.1,0.2 0.14,0.33c0,0.02 0.01,0.05 0.01,0.08c0,0.03 0,0.05 -0.02,0.07c-0.02,0.02 -0.04,0.03 -0.06,0.04c-0.03,0 -0.06,0 -0.1,0l-0.29,0c-0.03,0 -0.06,0 -0.09,0c-0.03,0 -0.05,-0.01 -0.07,-0.03c-0.02,-0.02 -0.04,-0.04 -0.05,-0.07c-0.01,-0.04 -0.02,-0.07 -0.04,-0.1c-0.02,-0.04 -0.05,-0.08 -0.08,-0.12c-0.03,-0.04 -0.07,-0.07 -0.11,-0.1c-0.06,-0.04 -0.12,-0.07 -0.21,-0.1c-0.02,0 -0.03,0 -0.05,-0.01c-0.02,0 -0.04,0 -0.05,0c-0.01,0 -0.02,0 -0.03,0c-0.04,-0.01 -0.08,-0.01 -0.14,0c-0.05,0 -0.09,0.01 -0.13,0.01c-0.02,0.01 -0.03,0.01 -0.06,0.02c-0.01,0 -0.03,0 -0.05,0.01c-0.07,0.04 -0.15,0.07 -0.21,0.12c-0.06,0.05 -0.11,0.1 -0.16,0.17c-0.04,0.06 -0.08,0.12 -0.1,0.19c-0.02,0.06 -0.04,0.13 -0.06,0.21c-0.01,0.03 -0.02,0.06 -0.02,0.09c0,0.03 -0.01,0.07 -0.01,0.1l0,0.06c0,0 -0.01,0.04 -0.01,0.06c0,0.02 0,0.04 0,0.06c0,0.05 0,0.1 0,0.15c0,0.06 0.01,0.1 0.02,0.15c0,0.01 0,0.02 0,0.03c0,0.01 0,0.02 0,0.03c0.05,0.15 0.1,0.28 0.17,0.39c0.08,0.1 0.18,0.19 0.32,0.24c0.02,0.01 0.05,0.03 0.08,0.04c0.02,0.01 0.06,0.01 0.09,0.02c0.01,0 0.04,0 0.05,0c0.02,0 0.03,0 0.05,0.01c0.02,0 0.04,0.01 0.06,0.01c0.03,0 0.06,0 0.08,-0.01c0.01,0 0.03,0 0.04,0c0.01,0 0.02,0 0.03,0c0.02,0 0.03,0 0.04,0c0.01,0 0.02,0 0.03,-0.01c0.05,-0.01 0.08,-0.02 0.12,-0.03c0.04,-0.01 0.07,-0.03 0.1,-0.04c0.08,-0.05 0.14,-0.1 0.18,-0.16c0.05,-0.06 0.09,-0.13 0.12,-0.22c0.01,-0.03 0.02,-0.07 0.03,-0.11c0,-0.05 -0.02,-0.08 -0.05,-0.1c-0.01,-0.01 -0.03,-0.02 -0.07,-0.02l-0.31,0c0,0 -0.04,0 -0.06,0c-0.02,0 -0.03,0 -0.06,0l-0.03,0c0,0 -0.03,-0.01 -0.04,-0.01c-0.01,0 -0.02,0 -0.03,-0.01c-0.02,-0.01 -0.03,-0.03 -0.04,-0.05c0,-0.03 -0.01,-0.05 -0.01,-0.08c0,-0.03 0,-0.06 0,-0.09c0,-0.03 0,-0.06 0,-0.09c0,-0.02 0,-0.04 0,-0.07c0,-0.02 0,-0.03 0.01,-0.05c0.01,-0.03 0.03,-0.04 0.05,-0.05c0.02,0 0.03,-0.01 0.05,-0.01l0.04,0c0,0 0.03,0 0.04,0l0.99,0c0.07,0 0.11,0.01 0.13,0.04c0.02,0.03 0.02,0.05 0.02,0.09l0,1.32c0,0.05 0,0.11 0,0.16c0,0.05 -0.02,0.08 -0.05,0.1c-0.02,0 -0.04,0.01 -0.07,0.01l-0.07,0c-0.06,0 -0.12,0 -0.16,-0.01c-0.04,0 -0.08,-0.02 -0.09,-0.07c-0.01,-0.02 -0.02,-0.06 -0.03,-0.09c0,-0.03 -0.01,-0.06 -0.03,-0.08c-0.01,0 -0.01,-0.01 -0.02,-0.02c-0.01,-0.02 -0.02,-0.02 -0.04,-0.01c-0.02,0 -0.04,0.02 -0.06,0.04c-0.01,0.01 -0.03,0.03 -0.05,0.05c-0.03,0.02 -0.06,0.04 -0.08,0.06c-0.03,0.02 -0.06,0.04 -0.09,0.06c-0.04,0.02 -0.08,0.04 -0.13,0.06c-0.04,0.01 -0.08,0.02 -0.13,0.04c-0.02,0.01 -0.03,0.01 -0.05,0.01c-0.02,0 -0.03,0 -0.05,0.01c-0.02,0 -0.05,0.01 -0.07,0.01c-0.03,0 -0.06,0 -0.08,0.01c-0.01,0 -0.03,0 -0.06,0c-0.02,0 -0.03,0 -0.05,-0.01l-0.04,0c0,0 -0.02,0 -0.04,0c-0.01,0 -0.03,0 -0.04,0l-0.04,0c0,0 -0.05,-0.01 -0.07,-0.01c-0.03,0 -0.05,0 -0.08,-0.01c-0.02,-0.01 -0.04,-0.01 -0.06,-0.02c-0.02,-0.01 -0.04,-0.01 -0.06,-0.02c-0.09,-0.02 -0.17,-0.05 -0.24,-0.09c-0.17,-0.09 -0.31,-0.2 -0.43,-0.33c-0.11,-0.12 -0.2,-0.28 -0.28,-0.47c-0.02,-0.04 -0.03,-0.09 -0.04,-0.13c0,-0.04 -0.02,-0.08 -0.03,-0.12c0,-0.01 0,-0.03 0,-0.04c0,-0.01 0,-0.02 -0.02,-0.03c0,-0.03 -0.01,-0.05 -0.01,-0.07c0,-0.02 0,-0.05 -0.01,-0.07c0,-0.01 0,-0.02 0,-0.04c0,-0.01 0,-0.02 0,-0.03l0,-0.08c0,0 -0.01,-0.04 -0.01,-0.07c0,-0.04 0,-0.06 0.01,-0.07l0,-0.05c0,0 0,-0.04 0,-0.05c0,-0.03 0,-0.04 0,-0.06c0.01,-0.03 0.01,-0.05 0.01,-0.08c0,-0.03 0,-0.05 0.01,-0.07c0.02,-0.04 0.02,-0.07 0.03,-0.1c0,-0.03 0.01,-0.06 0.02,-0.1c0.02,-0.04 0.03,-0.08 0.05,-0.12c0.01,-0.04 0.03,-0.08 0.04,-0.12c0.02,-0.04 0.04,-0.08 0.07,-0.12c0.02,-0.04 0.05,-0.08 0.07,-0.11c0.09,-0.13 0.19,-0.24 0.3,-0.33c0.12,-0.09 0.26,-0.16 0.42,-0.22c0.03,-0.01 0.07,-0.02 0.1,-0.03c0.04,0 0.09,-0.01 0.12,-0.03c0.02,0 0.03,-0.01 0.05,-0.01c0.02,0 0.03,0 0.05,-0.01c0.02,0 0.04,-0.01 0.06,0c0.02,0 0.04,0 0.06,0c0,0 0.01,0 0.02,0c0.01,0 0.02,0 0.03,0l0.01,-0.02z" fill="#ffffff" id="svg_5"/>
   <path d="m42.86,42.08c0,0 0,0.03 0.01,0.04c0.01,0.02 0.01,0.04 0.02,0.06c0,0.02 0,0.04 0,0.06c0,0.01 -0.01,0.03 -0.03,0.04c-0.02,0.01 -0.07,0.02 -0.12,0.01c-0.06,0 -0.1,0 -0.14,0l-0.21,0c0,0 -0.05,0 -0.06,0c-0.02,0 -0.04,0 -0.06,0c-0.03,-0.01 -0.06,-0.03 -0.07,-0.05c-0.01,-0.03 -0.02,-0.05 -0.03,-0.08c-0.01,-0.03 -0.02,-0.05 -0.03,-0.08c-0.01,-0.05 -0.03,-0.1 -0.05,-0.15c-0.01,-0.04 -0.03,-0.09 -0.05,-0.13c0,-0.03 -0.02,-0.06 -0.03,-0.08c0,-0.02 -0.01,-0.04 -0.02,-0.06c-0.01,-0.02 -0.02,-0.03 -0.04,-0.05c-0.02,-0.01 -0.04,-0.02 -0.07,-0.02c-0.02,0 -0.03,0 -0.04,0c-0.02,0 -0.03,0 -0.05,0l-0.7,0c-0.06,0 -0.11,0 -0.16,0c-0.06,0 -0.11,0.01 -0.14,0.03c-0.03,0.01 -0.04,0.04 -0.05,0.07c-0.01,0.03 -0.02,0.06 -0.03,0.09c-0.03,0.05 -0.05,0.11 -0.06,0.16c-0.02,0.06 -0.04,0.11 -0.06,0.17c-0.01,0.02 -0.02,0.06 -0.04,0.09c-0.01,0.04 -0.02,0.06 -0.04,0.08c-0.02,0.01 -0.04,0.02 -0.07,0.02c-0.02,0 -0.06,0.01 -0.09,0.01c-0.04,0 -0.07,0 -0.11,0c-0.03,0 -0.06,0 -0.09,0c-0.04,0 -0.09,0 -0.15,0c-0.05,0 -0.09,0 -0.12,-0.02c-0.01,-0.01 -0.02,-0.02 -0.02,-0.04c0,-0.01 0,-0.04 0,-0.05c0,-0.02 0.01,-0.04 0.01,-0.06c0,-0.02 0.01,-0.03 0.02,-0.04c0.03,-0.07 0.06,-0.14 0.09,-0.22c0.02,-0.07 0.04,-0.14 0.07,-0.21c0.01,-0.02 0.02,-0.05 0.03,-0.07c0,-0.02 0.01,-0.05 0.02,-0.07c0.03,-0.07 0.05,-0.13 0.07,-0.2c0.03,-0.06 0.05,-0.12 0.07,-0.19c0.03,-0.06 0.05,-0.12 0.07,-0.18c0.02,-0.06 0.05,-0.11 0.07,-0.17c0.07,-0.17 0.13,-0.34 0.19,-0.5c0.06,-0.17 0.12,-0.34 0.19,-0.5c0,-0.02 0.01,-0.03 0.01,-0.04c0,-0.01 0.01,-0.03 0.02,-0.04c0.02,-0.06 0.04,-0.13 0.07,-0.19c0.02,-0.06 0.04,-0.13 0.07,-0.19c0.02,-0.03 0.03,-0.07 0.04,-0.1c0.01,-0.04 0.02,-0.07 0.05,-0.09c0.02,-0.01 0.04,-0.02 0.06,-0.02c0.01,0 0.01,0 0.02,0c0,0 0.01,0 0.02,0l0.39,0c0.03,0 0.06,0 0.1,0c0.04,0 0.07,0 0.09,0.02c0.03,0.02 0.05,0.04 0.06,0.07c0.01,0.04 0.02,0.07 0.04,0.11c0.02,0.06 0.04,0.1 0.06,0.15c0.01,0.05 0.04,0.1 0.06,0.15c0,0.02 0.01,0.04 0.01,0.06c0.01,0.02 0.01,0.03 0.03,0.05c0.02,0.06 0.04,0.12 0.06,0.18c0.02,0.06 0.04,0.11 0.07,0.17c0.06,0.15 0.11,0.3 0.17,0.45c0.05,0.15 0.1,0.3 0.17,0.46c0,0.01 0.01,0.02 0.01,0.03c0,0.01 0,0.02 0.01,0.03c0.02,0.05 0.04,0.1 0.05,0.14c0.02,0.05 0.04,0.1 0.06,0.15c0.01,0.02 0.02,0.05 0.02,0.07c0.01,0.02 0.02,0.04 0.02,0.07c0.04,0.1 0.08,0.19 0.11,0.29c0.03,0.1 0.07,0.19 0.11,0.28c0,0.01 0,0.01 0,0.02c0,0.01 0,0.02 0.02,0.03l0.02,-0.02zm-1.16,-1.03c0.04,-0.01 0.05,-0.03 0.05,-0.07c0,-0.04 -0.01,-0.07 -0.03,-0.1c0,-0.01 -0.01,-0.02 -0.01,-0.03c0,-0.02 0,-0.03 -0.01,-0.04c-0.03,-0.1 -0.07,-0.2 -0.1,-0.31c-0.04,-0.11 -0.07,-0.21 -0.12,-0.31c0,-0.02 -0.01,-0.04 -0.02,-0.05c0,-0.02 -0.01,-0.05 -0.02,-0.07c-0.01,-0.02 -0.02,-0.03 -0.03,-0.05c-0.01,-0.02 -0.03,-0.02 -0.05,-0.02c-0.01,0 -0.01,0.01 -0.02,0.01c0,0 -0.01,0.01 -0.02,0.01c-0.02,0.03 -0.04,0.07 -0.05,0.11c-0.01,0.04 -0.02,0.08 -0.03,0.11c-0.04,0.09 -0.07,0.18 -0.1,0.26c-0.03,0.09 -0.06,0.17 -0.09,0.26c-0.01,0.03 -0.02,0.06 -0.03,0.09c-0.01,0.02 -0.03,0.05 -0.03,0.09c-0.01,0.02 -0.01,0.05 0,0.08c0.02,0.02 0.04,0.03 0.07,0.03c0.04,0 0.07,0.01 0.11,0.01l0.43,0c0.03,0 0.06,0 0.09,-0.01l0.01,0z" fill="#ffffff" id="svg_6"/>
   <path d="m45.52,39.02c0.3,-0.01 0.56,0.04 0.76,0.16c0.2,0.11 0.36,0.26 0.48,0.44c0.06,0.09 0.1,0.2 0.14,0.33c0,0.02 0.01,0.05 0.01,0.08c0,0.03 0,0.05 -0.02,0.07c-0.01,0.02 -0.04,0.03 -0.06,0.04c-0.03,0 -0.06,0 -0.09,0l-0.29,0c-0.04,0 -0.07,0 -0.1,0c-0.02,0 -0.04,-0.01 -0.07,-0.03c-0.02,-0.02 -0.04,-0.04 -0.05,-0.07c-0.01,-0.04 -0.03,-0.07 -0.04,-0.1c-0.02,-0.04 -0.05,-0.08 -0.08,-0.12c-0.03,-0.04 -0.07,-0.07 -0.11,-0.1c-0.05,-0.04 -0.12,-0.07 -0.2,-0.1c-0.02,0 -0.04,0 -0.05,-0.01c-0.02,0 -0.04,0 -0.05,0c-0.01,0 -0.02,0 -0.04,0c-0.03,-0.01 -0.08,-0.01 -0.13,0c-0.06,0 -0.1,0.01 -0.13,0.01c-0.02,0.01 -0.04,0.01 -0.06,0.02c-0.02,0 -0.04,0 -0.05,0.01c-0.08,0.04 -0.15,0.07 -0.21,0.12c-0.06,0.05 -0.11,0.1 -0.16,0.17c-0.05,0.06 -0.08,0.12 -0.1,0.19c-0.02,0.06 -0.05,0.13 -0.06,0.21c-0.01,0.03 -0.02,0.06 -0.03,0.09c0,0.03 0,0.07 -0.01,0.1l0,0.06c0,0 -0.01,0.04 0,0.06c0,0.02 0,0.04 0,0.06c0,0.05 0,0.1 0,0.15c0,0.06 0.01,0.1 0.02,0.15c0,0.01 0,0.02 0,0.03c0,0.01 0,0.02 0,0.03c0.04,0.15 0.1,0.28 0.17,0.39c0.07,0.1 0.18,0.19 0.31,0.24c0.03,0.01 0.06,0.03 0.08,0.04c0.03,0.01 0.06,0.01 0.09,0.02c0.02,0 0.04,0 0.06,0c0.01,0 0.03,0 0.04,0.01c0.02,0 0.04,0.01 0.07,0.01c0.03,0 0.05,0 0.07,-0.01c0.02,0 0.03,0 0.04,0c0.01,0 0.02,0 0.04,0c0.02,0 0.03,0 0.04,0c0.01,0 0.02,0 0.03,-0.01c0.04,-0.01 0.08,-0.02 0.12,-0.03c0.04,-0.01 0.07,-0.03 0.1,-0.04c0.08,-0.05 0.13,-0.1 0.18,-0.16c0.05,-0.06 0.08,-0.13 0.12,-0.22c0.01,-0.03 0.02,-0.07 0.02,-0.11c0,-0.05 -0.01,-0.08 -0.04,-0.1c-0.02,-0.01 -0.04,-0.02 -0.07,-0.02l-0.31,0c0,0 -0.04,0 -0.06,0c-0.02,0 -0.04,0 -0.06,0l-0.04,0c0,0 -0.02,-0.01 -0.03,-0.01c-0.02,0 -0.03,0 -0.04,-0.01c-0.01,-0.01 -0.02,-0.03 -0.03,-0.05c0,-0.03 -0.01,-0.05 -0.01,-0.08l0,-0.09c0,-0.03 0,-0.06 0,-0.09c0,-0.02 0,-0.04 0,-0.07c0,-0.02 0.01,-0.03 0.01,-0.05c0.01,-0.03 0.03,-0.04 0.05,-0.05c0.02,0 0.03,-0.01 0.05,-0.01l0.05,0c0,0 0.02,0 0.03,0l0.99,0c0.07,0 0.11,0.01 0.13,0.04c0.02,0.03 0.02,0.05 0.02,0.09l0,1.32c0,0.05 0,0.11 0,0.16c0,0.05 -0.02,0.08 -0.06,0.1c-0.01,0 -0.04,0.01 -0.06,0.01l-0.08,0c-0.06,0 -0.11,0 -0.15,-0.01c-0.05,0 -0.08,-0.02 -0.09,-0.07c-0.01,-0.02 -0.03,-0.06 -0.03,-0.09c-0.01,-0.03 -0.02,-0.06 -0.03,-0.08c-0.01,0 -0.02,-0.01 -0.02,-0.02c-0.01,-0.02 -0.03,-0.02 -0.04,-0.01c-0.02,0 -0.05,0.02 -0.06,0.04c-0.02,0.01 -0.03,0.03 -0.05,0.05c-0.03,0.02 -0.06,0.04 -0.09,0.06c-0.02,0.02 -0.05,0.04 -0.09,0.06c-0.03,0.02 -0.08,0.04 -0.12,0.06c-0.04,0.01 -0.09,0.02 -0.13,0.04c-0.02,0.01 -0.03,0.01 -0.05,0.01c-0.02,0 -0.03,0 -0.05,0.01c-0.03,0 -0.05,0.01 -0.08,0.01c-0.02,0 -0.05,0 -0.08,0.01c-0.01,0 -0.02,0 -0.05,0c-0.02,0 -0.04,0 -0.05,-0.01l-0.05,0c0,0 -0.03,0 -0.04,0c-0.01,0 -0.03,0 -0.04,0l-0.04,0c0,0 -0.05,-0.01 -0.08,-0.01c-0.02,0 -0.04,0 -0.06,-0.01c-0.03,-0.01 -0.05,-0.01 -0.07,-0.02c-0.02,-0.01 -0.04,-0.01 -0.06,-0.02c-0.09,-0.02 -0.17,-0.05 -0.24,-0.09c-0.18,-0.09 -0.32,-0.2 -0.43,-0.33c-0.11,-0.12 -0.2,-0.28 -0.28,-0.47c-0.02,-0.04 -0.04,-0.09 -0.04,-0.13c-0.01,-0.04 -0.02,-0.08 -0.04,-0.12c0,-0.01 0,-0.03 0,-0.04c0,-0.01 0,-0.02 -0.01,-0.03c0,-0.03 -0.01,-0.05 -0.01,-0.07c0,-0.02 0,-0.05 -0.01,-0.07c-0.01,-0.01 -0.01,-0.02 -0.01,-0.04c0,-0.01 0,-0.02 0,-0.03l0,-0.08c0,0 -0.01,-0.04 -0.01,-0.07c0,-0.04 0,-0.06 0.01,-0.07l0,-0.05c0,0 0,-0.04 0,-0.05c0,-0.03 0,-0.04 0.01,-0.06c0,-0.03 0.01,-0.05 0.01,-0.08c0,-0.03 0,-0.05 0.01,-0.07c0.01,-0.04 0.02,-0.07 0.02,-0.1c0.01,-0.03 0.02,-0.06 0.03,-0.1c0.02,-0.04 0.03,-0.08 0.04,-0.12c0.02,-0.04 0.03,-0.08 0.05,-0.12c0.02,-0.04 0.04,-0.08 0.06,-0.12c0.03,-0.04 0.05,-0.08 0.07,-0.11c0.09,-0.13 0.2,-0.24 0.31,-0.33c0.11,-0.08 0.25,-0.16 0.41,-0.22c0.04,-0.01 0.07,-0.02 0.11,-0.03c0.04,0 0.08,-0.01 0.12,-0.03c0.01,0 0.03,-0.01 0.05,-0.01c0.01,0 0.03,0 0.05,-0.01c0.02,0 0.03,-0.01 0.05,0c0.03,0 0.04,0 0.06,0c0.01,0 0.02,0 0.03,0c0.01,0 0.02,0 0.03,0l0.01,-0.02z" fill="#ffffff" id="svg_7"/>
   <path d="m48.61,39.1l2.06,0c0.04,0 0.07,0 0.1,0c0.04,0 0.06,0.01 0.07,0.03c0.01,0.01 0.02,0.03 0.02,0.04c0,0.01 0,0.02 0.01,0.03l0,0.05c0,0 0,0.05 0,0.07c0,0.02 0,0.04 0,0.06c0,0.03 0,0.05 0,0.07c0,0.02 0,0.04 0,0.07c0,0.01 0,0.03 0,0.06c-0.01,0.04 -0.03,0.06 -0.05,0.07c-0.01,0.02 -0.04,0.02 -0.06,0.02l-1.21,0c0,0 -0.05,0 -0.08,0c-0.03,0 -0.06,0 -0.1,0c-0.03,0 -0.05,0 -0.08,0.01c-0.03,0 -0.05,0.01 -0.06,0.02c-0.02,0.02 -0.03,0.04 -0.04,0.07c0,0.02 0,0.06 0,0.09l0,0.39c0,0 0.01,0.04 0.01,0.06c0,0.02 0.02,0.03 0.03,0.04c0.02,0.01 0.04,0.02 0.06,0.02c0.03,0 0.05,0 0.08,0l1.01,0c0,0 0.05,0 0.08,0l0.09,0c0.03,0 0.06,0 0.09,0c0.03,0 0.04,0.01 0.05,0.02c0.02,0 0.03,0.03 0.04,0.05c0,0.03 0.01,0.06 0.01,0.09l0,0.1c0,0.03 0,0.06 0,0.08l0,0.07c0,0 0,0.04 -0.01,0.05c0,0.02 -0.02,0.04 -0.04,0.06c-0.02,0.01 -0.03,0.01 -0.06,0.02c-0.03,0 -0.05,0 -0.09,0c-0.03,0 -0.06,0 -0.09,0c-0.03,0 -0.06,0 -0.08,0l-0.87,0c-0.04,0 -0.07,0 -0.11,0c-0.03,0 -0.06,0 -0.09,0c-0.03,0 -0.05,0.01 -0.08,0.03c-0.02,0.01 -0.03,0.03 -0.04,0.06c0,0.01 0,0.02 0,0.04l0,0.47c0,0.04 0,0.07 0.01,0.1c0,0.02 0.01,0.05 0.03,0.06c0.01,0.01 0.03,0.01 0.04,0.02c0.01,0 0.02,0 0.04,0.01l0.04,0c0,0 0.03,0 0.05,0c0.02,0 0.03,0 0.05,0l1.33,0c0,0 0.05,0 0.06,0.01c0.03,0.02 0.04,0.03 0.05,0.05c0.01,0.02 0.01,0.04 0.01,0.06c0,0.02 0,0.04 0,0.07l0,0.2c0,0.04 0,0.07 0,0.1c0,0.03 -0.01,0.06 -0.03,0.07c-0.03,0.02 -0.05,0.02 -0.07,0.02l-2.11,0c-0.05,0 -0.08,0 -0.12,0c-0.03,0 -0.05,-0.02 -0.07,-0.04c-0.01,-0.03 -0.01,-0.05 -0.01,-0.07l0,-2.97c0,-0.02 0,-0.04 0.01,-0.06c0.02,-0.02 0.04,-0.04 0.07,-0.05c0,0 0.01,0 0.02,0c0.01,0 0.01,0 0.02,0l0.01,0.01zm1.22,-0.93l0.4,0c0.03,0 0.05,0 0.07,0.01c0,0 0.01,0 0.01,0.01c0,0.01 0,0.01 0.01,0.01c0,0.04 -0.01,0.07 -0.04,0.09c-0.04,0.03 -0.06,0.05 -0.08,0.07c-0.03,0.02 -0.05,0.04 -0.07,0.07c-0.03,0.02 -0.05,0.04 -0.07,0.05c-0.01,0.01 -0.03,0.03 -0.03,0.03c-0.01,0.01 -0.02,0.02 -0.03,0.02c0,0.01 -0.01,0.02 -0.02,0.02c-0.02,0.02 -0.04,0.03 -0.05,0.05c-0.02,0.01 -0.04,0.02 -0.05,0.04c0,0 -0.01,0.01 -0.01,0.01c0,0 0,0.01 -0.01,0.01c-0.02,0.02 -0.05,0.04 -0.07,0.06c-0.02,0.02 -0.05,0.04 -0.08,0.05c-0.01,0 -0.02,0 -0.03,0c-0.01,0 -0.03,0 -0.04,0c-0.01,0 -0.02,0 -0.03,0c-0.02,0 -0.03,0 -0.04,0l-0.1,0c-0.04,0 -0.07,-0.01 -0.08,-0.02c-0.02,-0.01 -0.03,-0.03 -0.02,-0.07c0.01,-0.02 0.02,-0.04 0.04,-0.06c0.01,-0.02 0.02,-0.04 0.03,-0.06c0.04,-0.04 0.06,-0.08 0.09,-0.12c0.03,-0.04 0.05,-0.08 0.08,-0.12c0.02,-0.02 0.03,-0.05 0.05,-0.08c0.01,-0.02 0.03,-0.04 0.05,-0.06c0.01,-0.01 0.03,-0.02 0.07,-0.03c0,0 0.01,0 0.02,0c0.01,0 0.03,0 0.03,0l0,0.02z" fill="#ffffff" id="svg_8"/>
   <path d="m53.38,39.03c0.58,-0.01 0.97,0.16 1.19,0.52c0.03,0.05 0.06,0.09 0.07,0.14c0.02,0.06 0.04,0.11 0.05,0.17c0.01,0.02 0.01,0.05 0.01,0.08c0,0.03 -0.01,0.05 -0.02,0.07c-0.02,0.02 -0.04,0.03 -0.07,0.03c-0.02,0 -0.06,0.01 -0.09,0.01l-0.36,0c-0.03,0 -0.05,0 -0.07,-0.01c-0.04,-0.02 -0.06,-0.04 -0.07,-0.07c-0.01,-0.03 -0.02,-0.06 -0.04,-0.1c-0.01,-0.02 -0.02,-0.05 -0.04,-0.09c-0.03,-0.03 -0.05,-0.06 -0.07,-0.08c-0.04,-0.03 -0.08,-0.06 -0.12,-0.08c-0.04,-0.01 -0.08,-0.02 -0.14,-0.04c-0.05,-0.01 -0.1,-0.01 -0.16,-0.02c-0.05,0 -0.1,0 -0.16,0c-0.06,0.01 -0.1,0.02 -0.15,0.04c-0.07,0.03 -0.12,0.07 -0.16,0.11c-0.04,0.04 -0.06,0.1 -0.07,0.18c-0.01,0.02 -0.01,0.04 -0.01,0.07c0,0.03 0.01,0.05 0.02,0.06c0.02,0.06 0.06,0.11 0.1,0.13c0.04,0.03 0.1,0.05 0.15,0.08c0.04,0.01 0.07,0.03 0.11,0.03c0.03,0.01 0.07,0.02 0.1,0.03c0.08,0.02 0.16,0.05 0.25,0.07c0.09,0.01 0.17,0.04 0.25,0.06c0.02,0.01 0.03,0.01 0.05,0.01c0.02,0 0.03,0 0.04,0.01c0.06,0.02 0.13,0.04 0.19,0.06c0.07,0.02 0.13,0.05 0.17,0.08c0.08,0.05 0.15,0.1 0.21,0.15c0.06,0.05 0.12,0.12 0.16,0.2c0.02,0.02 0.03,0.04 0.04,0.08c0.01,0.02 0.02,0.06 0.03,0.09c0,0.01 0,0.01 0,0.02c0,0.01 0,0.02 0,0.03c0.01,0.04 0.02,0.1 0.02,0.18c0.01,0.01 0.01,0.03 0,0.04l0,0.08c0,0.03 -0.01,0.07 -0.01,0.09c0,0.04 -0.01,0.06 -0.02,0.09c-0.02,0.06 -0.03,0.11 -0.06,0.15c-0.02,0.05 -0.04,0.09 -0.07,0.13c-0.01,0.02 -0.02,0.03 -0.04,0.04c-0.01,0.01 -0.02,0.02 -0.03,0.04c-0.02,0.02 -0.03,0.04 -0.05,0.05c-0.02,0.02 -0.04,0.03 -0.06,0.05c-0.01,0.01 -0.03,0.02 -0.05,0.04c-0.01,0.01 -0.03,0.02 -0.05,0.04c-0.05,0.03 -0.1,0.05 -0.16,0.08c-0.06,0.02 -0.11,0.04 -0.17,0.06c-0.05,0.02 -0.09,0.02 -0.13,0.03c-0.05,0 -0.09,0.01 -0.14,0.02c-0.02,0 -0.04,0.01 -0.05,0c-0.02,0 -0.04,0 -0.06,0.01l-0.04,0c0,0 -0.01,0 -0.02,0c-0.01,0 -0.02,0 -0.02,0c-0.02,0 -0.05,0 -0.08,0c-0.04,0 -0.06,0 -0.08,0l-0.05,0c0,0 -0.04,-0.01 -0.06,-0.01c-0.02,0 -0.05,0 -0.06,0c-0.02,0 -0.03,0 -0.04,0c-0.02,0 -0.03,0 -0.04,-0.01c-0.04,-0.01 -0.08,-0.01 -0.11,-0.02c-0.04,0 -0.08,-0.01 -0.11,-0.03c-0.15,-0.04 -0.28,-0.1 -0.39,-0.18c-0.11,-0.07 -0.2,-0.17 -0.28,-0.29c-0.05,-0.07 -0.08,-0.15 -0.11,-0.25c-0.01,-0.02 -0.01,-0.04 -0.01,-0.06c0,-0.01 0,-0.04 -0.01,-0.06c-0.01,-0.02 -0.01,-0.05 -0.02,-0.08c0,-0.04 0,-0.06 0.02,-0.08c0.01,-0.03 0.04,-0.04 0.06,-0.04c0.03,0 0.06,-0.01 0.1,-0.01l0.36,0c0.03,0 0.05,0 0.07,0.01c0.03,0.02 0.05,0.04 0.06,0.08c0,0.03 0.01,0.07 0.03,0.11c0.01,0.03 0.03,0.07 0.04,0.09c0.02,0.03 0.04,0.06 0.06,0.09c0.02,0.01 0.03,0.03 0.05,0.05c0.02,0.01 0.04,0.02 0.05,0.03c0.07,0.05 0.15,0.08 0.25,0.11c0.02,0 0.03,0.01 0.05,0.01c0.03,0 0.04,0 0.07,0.01l0.02,0c0,0 0.06,0.01 0.1,0.01c0.03,0 0.07,0 0.09,-0.01c0.01,0 0.03,0 0.05,0c0.02,0 0.03,0 0.05,0c0.02,0 0.03,-0.01 0.05,-0.01c0.1,-0.03 0.18,-0.07 0.24,-0.11c0.06,-0.04 0.1,-0.12 0.13,-0.23c0,-0.02 0,-0.04 0,-0.07c0,-0.02 -0.01,-0.04 -0.02,-0.06c-0.03,-0.08 -0.08,-0.14 -0.15,-0.19c-0.01,0 -0.03,-0.01 -0.05,-0.02c-0.04,-0.03 -0.09,-0.05 -0.15,-0.07c-0.06,-0.01 -0.11,-0.03 -0.16,-0.05c-0.02,0 -0.05,-0.01 -0.06,-0.01c-0.02,0 -0.04,-0.01 -0.07,-0.02c-0.04,-0.02 -0.09,-0.03 -0.14,-0.04c-0.05,-0.01 -0.1,-0.02 -0.14,-0.03c-0.02,-0.01 -0.03,-0.01 -0.04,-0.01c0,0 -0.02,0 -0.03,-0.02c-0.03,0 -0.05,-0.01 -0.06,-0.01c-0.03,0 -0.05,-0.01 -0.07,-0.02c-0.07,-0.02 -0.13,-0.05 -0.2,-0.07c-0.06,-0.03 -0.12,-0.06 -0.17,-0.09c-0.07,-0.04 -0.13,-0.1 -0.19,-0.15c-0.06,-0.06 -0.1,-0.13 -0.14,-0.21c-0.01,-0.02 -0.02,-0.05 -0.02,-0.08c-0.01,-0.03 -0.02,-0.06 -0.02,-0.1c-0.01,-0.02 -0.02,-0.06 -0.02,-0.11c0,-0.05 0,-0.09 0,-0.12c0,-0.01 0,-0.03 0,-0.05c0.02,-0.04 0.02,-0.07 0.03,-0.1c0,-0.03 0.01,-0.06 0.02,-0.09c0.05,-0.1 0.1,-0.19 0.17,-0.27c0.07,-0.07 0.15,-0.13 0.25,-0.19c0.05,-0.04 0.12,-0.07 0.19,-0.09c0.07,-0.02 0.14,-0.04 0.22,-0.06c0.03,0 0.06,-0.01 0.08,-0.01c0.03,0 0.06,0 0.09,-0.01c0.01,0 0.02,0 0.04,0c0.02,0 0.04,0 0.04,0l0.04,-0.04z" fill="#ffffff" id="svg_9"/>
   <path d="m60.7,39.49c0.07,0.1 0.11,0.21 0.15,0.32c0.03,0.12 0.04,0.26 0.03,0.42c-0.01,0.07 -0.02,0.13 -0.03,0.19c-0.02,0.05 -0.04,0.1 -0.06,0.15c0,0.01 -0.01,0.03 -0.01,0.04c0,0.01 -0.01,0.02 -0.02,0.03c-0.01,0.02 -0.02,0.04 -0.03,0.06c-0.01,0.02 -0.02,0.04 -0.04,0.06c-0.06,0.09 -0.13,0.15 -0.22,0.2c-0.09,0.06 -0.18,0.1 -0.28,0.14c-0.04,0.01 -0.07,0.02 -0.11,0.02c-0.04,0 -0.07,0 -0.11,0.02c-0.02,0 -0.04,0 -0.05,0c-0.02,0 -0.04,0 -0.06,0l-0.68,0c-0.04,0 -0.07,0.01 -0.1,0.03c-0.03,0.02 -0.05,0.06 -0.05,0.1l0,0.75c0,0.04 0,0.08 0,0.12c0,0.04 0,0.07 -0.02,0.1c-0.01,0.02 -0.04,0.03 -0.08,0.04c-0.02,0.01 -0.04,0.01 -0.06,0c-0.03,0 -0.05,0 -0.07,0l-0.26,0c-0.03,0 -0.07,0 -0.09,0c-0.03,0 -0.05,0 -0.07,-0.02c-0.02,-0.02 -0.03,-0.04 -0.03,-0.07c0,-0.04 0,-0.07 0,-0.1l0,-2.68c0,-0.04 0,-0.09 0,-0.15c0,-0.06 0,-0.09 0.02,-0.11c0.01,-0.03 0.03,-0.04 0.06,-0.05c0.01,0 0.02,0 0.02,0c0.01,0 0.02,0 0.02,0l1.3,0c0,0 0.05,0 0.08,0c0.02,0 0.05,0 0.07,0l0.02,0c0,0 0.04,0.01 0.05,0.01c0.02,0 0.03,0 0.05,0.01c0.02,0 0.03,0 0.04,0c0.01,0 0.03,0 0.04,0.01c0.05,0.02 0.1,0.03 0.15,0.04c0.04,0.01 0.09,0.03 0.13,0.06c0.02,0.01 0.03,0.02 0.05,0.03c0.01,0.01 0.04,0.02 0.05,0.04c0.02,0.01 0.03,0.02 0.04,0.02c0.01,0.01 0.03,0.02 0.04,0.03l0.02,0.03c0.04,0.04 0.07,0.07 0.1,0.11l0,0zm-0.5,0.74c0.01,-0.03 0.01,-0.08 0.01,-0.12c0,-0.05 -0.01,-0.1 -0.02,-0.13c-0.02,-0.06 -0.04,-0.12 -0.06,-0.15c-0.03,-0.04 -0.07,-0.08 -0.13,-0.11c-0.04,-0.03 -0.1,-0.05 -0.16,-0.06c-0.07,-0.01 -0.14,-0.02 -0.22,-0.02c-0.07,0 -0.15,0 -0.23,0c-0.08,0 -0.16,0 -0.23,0c-0.01,0 -0.02,0 -0.03,0c-0.01,0 -0.02,0 -0.02,0c-0.03,0.01 -0.05,0.03 -0.06,0.06c-0.01,0.02 -0.02,0.05 -0.02,0.09l0,0.66c0,0.04 0.01,0.07 0.02,0.1c0.01,0.02 0.03,0.03 0.05,0.04c0.02,0.01 0.05,0.01 0.08,0.01l0.1,0c0.03,0 0.07,0 0.1,0c0.16,0 0.3,0 0.43,-0.02c0.13,-0.01 0.23,-0.06 0.3,-0.15c0.02,-0.03 0.03,-0.06 0.04,-0.09c0.01,-0.03 0.03,-0.06 0.04,-0.1l0.01,-0.01z" fill="#ffffff" id="svg_10"/>
   <path d="m65.26,40.58c0,0 0.01,0.05 0.01,0.09c0,0.05 0,0.08 0,0.1l0,0.05c-0.01,0.03 -0.01,0.06 -0.01,0.1c0,0.03 0,0.06 -0.01,0.09c-0.01,0.02 -0.02,0.04 -0.02,0.07c0,0.02 -0.01,0.04 -0.01,0.06c-0.02,0.05 -0.03,0.11 -0.04,0.16c-0.02,0.04 -0.04,0.1 -0.06,0.15c-0.08,0.21 -0.21,0.38 -0.36,0.52c-0.16,0.14 -0.34,0.24 -0.57,0.31c-0.03,0.01 -0.06,0.03 -0.09,0.03c-0.04,0.01 -0.07,0.01 -0.1,0.02c-0.02,0 -0.03,0.01 -0.05,0.01c-0.01,0 -0.03,0 -0.05,0l-0.15,0.01c0,0 -0.03,0 -0.06,0c-0.03,0 -0.05,0 -0.06,-0.01c-0.02,0 -0.03,0 -0.04,0c-0.01,0 -0.03,0 -0.05,0l-0.04,0c0,0 -0.05,-0.01 -0.07,-0.01c-0.03,0 -0.05,0 -0.07,-0.01c-0.02,0 -0.05,-0.01 -0.07,-0.01c-0.02,0 -0.05,-0.02 -0.07,-0.02c-0.03,-0.01 -0.07,-0.03 -0.1,-0.04c-0.04,-0.01 -0.07,-0.03 -0.1,-0.04c-0.18,-0.08 -0.33,-0.18 -0.46,-0.31c-0.13,-0.13 -0.22,-0.29 -0.3,-0.46c-0.02,-0.05 -0.04,-0.09 -0.05,-0.14c-0.01,-0.05 -0.02,-0.09 -0.03,-0.14c-0.01,-0.01 -0.01,-0.02 -0.01,-0.04c0,-0.01 0,-0.02 0,-0.03c-0.01,-0.02 -0.02,-0.04 -0.02,-0.06c0,-0.02 0,-0.05 -0.01,-0.07c0,-0.02 0,-0.03 0,-0.04c0,-0.02 0,-0.03 -0.01,-0.04c0,-0.02 0,-0.04 0,-0.06c0,-0.02 0,-0.03 0,-0.05c0,-0.02 0,-0.04 0,-0.07c0,-0.04 0,-0.06 0,-0.07c0,-0.02 0,-0.03 0,-0.05c0,-0.01 0,-0.02 0,-0.04l0,-0.03c0,0 0.01,-0.03 0.01,-0.06c0,-0.02 0,-0.03 0.01,-0.05c0,-0.02 0,-0.03 0,-0.05c0,-0.01 0,-0.03 0.02,-0.05c0.01,-0.05 0.02,-0.1 0.03,-0.15c0.01,-0.04 0.02,-0.09 0.04,-0.14c0.03,-0.05 0.05,-0.1 0.07,-0.15c0.02,-0.05 0.04,-0.1 0.08,-0.15c0.09,-0.14 0.19,-0.26 0.3,-0.36c0.12,-0.09 0.26,-0.17 0.43,-0.24c0.04,-0.02 0.08,-0.03 0.12,-0.04c0.05,-0.01 0.09,-0.02 0.13,-0.03c0.02,-0.01 0.03,-0.01 0.05,-0.01c0.01,0 0.02,0 0.04,0l0.13,-0.01c0,0 0.02,0 0.03,0c0.01,0 0.02,0 0.02,0c0.22,-0.01 0.4,0.01 0.55,0.06c0.16,0.05 0.3,0.12 0.42,0.2c0.04,0.03 0.08,0.06 0.13,0.1c0.04,0.03 0.07,0.07 0.1,0.1c0.01,0.01 0.02,0.03 0.05,0.05c0.01,0.01 0.02,0.03 0.03,0.04c0.04,0.05 0.07,0.1 0.1,0.15c0.03,0.05 0.06,0.1 0.09,0.16c0.02,0.04 0.03,0.08 0.04,0.12c0.01,0.04 0.03,0.08 0.05,0.12c0,0.03 0.01,0.06 0.02,0.09c0,0.03 0.01,0.07 0.02,0.1c0,0.02 0.01,0.04 0.01,0.06c0,0.01 0,0.04 0.01,0.05c0,0.02 0.01,0.04 0,0.06c0,0.02 0,0.03 0,0.05l0,0.04l0,0.01zm-0.69,0.19c0,0 0,-0.04 0,-0.06c0,-0.04 0,-0.05 0,-0.07l0,-0.07c0,0 0,-0.02 0,-0.04c0,-0.01 0,-0.02 -0.01,-0.03c0,-0.02 -0.01,-0.05 -0.01,-0.07c0,-0.02 0,-0.04 -0.01,-0.06c0,-0.02 0,-0.03 -0.01,-0.05c0,-0.03 -0.02,-0.06 -0.03,-0.1c-0.01,-0.03 -0.02,-0.06 -0.03,-0.09c-0.07,-0.16 -0.16,-0.28 -0.29,-0.37c-0.12,-0.1 -0.29,-0.14 -0.51,-0.14c-0.01,0 -0.01,0 -0.02,0c-0.01,0 -0.02,0 -0.03,0c-0.01,0 -0.02,0 -0.03,0c-0.01,0 -0.03,0 -0.04,0c-0.03,0.01 -0.06,0.01 -0.1,0.02c-0.03,0.01 -0.06,0.02 -0.09,0.03c-0.12,0.05 -0.22,0.13 -0.29,0.23c-0.08,0.09 -0.14,0.21 -0.18,0.34c-0.01,0.03 -0.02,0.06 -0.02,0.1c0,0.03 -0.01,0.06 -0.02,0.09c0,0.01 0,0.02 0,0.03c0,0.02 0,0.03 0,0.04c-0.01,0.01 -0.01,0.03 0,0.05c0,0.01 0,0.03 0,0.04c-0.01,0.02 -0.01,0.05 -0.01,0.09c0,0.04 0,0.06 0,0.08l0,0.05c0,0 0,0.03 0,0.04c0,0.01 0,0.02 0,0.03c0,0.01 0,0.02 0,0.04c0,0.01 0,0.02 0,0.03c0.01,0.03 0.02,0.06 0.02,0.09c0,0.04 0.01,0.07 0.02,0.1c0.04,0.1 0.08,0.18 0.13,0.27c0.05,0.08 0.11,0.15 0.18,0.2c0.02,0.02 0.03,0.03 0.05,0.04c0.01,0.01 0.03,0.02 0.05,0.03c0.03,0.02 0.07,0.03 0.11,0.05c0.04,0.01 0.07,0.02 0.12,0.03c0.01,0.01 0.02,0.01 0.04,0.01c0.01,0 0.03,0 0.04,0c0.02,0 0.04,0.01 0.06,0.01l0.09,0c0,0 0.03,0 0.04,0c0.01,0 0.03,0 0.04,-0.01c0.03,0 0.06,-0.01 0.09,-0.02c0.03,0 0.06,-0.01 0.09,-0.02c0.12,-0.05 0.23,-0.12 0.3,-0.2c0.07,-0.08 0.13,-0.19 0.18,-0.32c0.02,-0.03 0.03,-0.06 0.04,-0.11c0,-0.03 0.01,-0.07 0.02,-0.11l0.02,-0.11c0,0 0,-0.02 0,-0.04l0,-0.07l0,0z" fill="#ffffff" id="svg_11"/>
   <path d="m66.8,39.09l0.38,0c0.03,0 0.06,0 0.09,0c0.04,0 0.06,0.02 0.07,0.03c0.02,0.03 0.02,0.06 0.03,0.09c0,0.04 0,0.08 0,0.12l0,1.53c0,0 0,0.02 0,0.04c0,0.01 0,0.03 0,0.04l0,0.07c0,0.02 0,0.05 0,0.08c0,0.03 0,0.06 0.01,0.08c0,0.02 0,0.04 0,0.05c0,0.03 0.01,0.07 0.01,0.1c0,0.03 0.01,0.06 0.02,0.09c0.04,0.08 0.08,0.15 0.13,0.2c0.06,0.05 0.13,0.09 0.21,0.12c0.02,0 0.05,0.01 0.07,0.01c0.02,0 0.05,0.01 0.07,0.01c0.02,0.01 0.03,0.01 0.04,0.01c0.01,0 0.03,0 0.04,0c0.01,0 0.03,0 0.05,0c0.03,0 0.05,0 0.06,-0.01l0.06,0c0,0 0.05,-0.01 0.07,-0.01c0.03,0 0.05,-0.01 0.07,-0.01c0.04,-0.01 0.07,-0.02 0.09,-0.03c0.06,-0.03 0.11,-0.06 0.15,-0.1c0.04,-0.04 0.07,-0.08 0.09,-0.14c0.04,-0.07 0.06,-0.16 0.06,-0.27c0,-0.11 0.01,-0.22 0.01,-0.33l0,-1.49c0,-0.04 0,-0.09 0,-0.14c0,-0.05 0,-0.09 0.02,-0.11c0.02,-0.02 0.04,-0.03 0.07,-0.03c0.02,0 0.05,-0.01 0.09,-0.01l0.29,0c0,0 0.04,0 0.07,0c0.02,0 0.04,0 0.06,0.01c0.04,0 0.07,0.02 0.08,0.04c0.02,0.03 0.02,0.06 0.02,0.11c0,0.04 0,0.08 0,0.11l0,1.51c0,0.11 0,0.22 0,0.33c0,0.11 -0.01,0.21 -0.04,0.29c-0.04,0.14 -0.09,0.27 -0.16,0.37c-0.06,0.1 -0.15,0.19 -0.25,0.26c-0.09,0.07 -0.2,0.12 -0.33,0.16c-0.02,0.01 -0.05,0.02 -0.08,0.02c-0.03,0.01 -0.06,0.01 -0.08,0.02c-0.02,0.01 -0.04,0.01 -0.06,0.01c-0.01,0 -0.03,0 -0.04,0.01c-0.04,0.01 -0.08,0.01 -0.13,0.01c-0.04,0 -0.08,0 -0.13,0c-0.28,0 -0.52,-0.03 -0.72,-0.1c-0.2,-0.08 -0.36,-0.2 -0.47,-0.36c-0.04,-0.05 -0.07,-0.11 -0.1,-0.17c-0.03,-0.05 -0.05,-0.12 -0.07,-0.18c0,-0.02 -0.01,-0.03 -0.01,-0.04c0,-0.01 0,-0.02 -0.01,-0.04c-0.02,-0.08 -0.04,-0.18 -0.04,-0.28l0,-1.97c0,-0.03 0.01,-0.05 0.02,-0.07c0.01,-0.02 0.04,-0.03 0.07,-0.04l0.01,0c0,0 0.01,0 0.02,0l0.02,0z" fill="#ffffff" id="svg_12"/>
   <path d="m73.63,42.19c0,0 0.01,0.03 0,0.05c-0.01,0.01 -0.02,0.02 -0.03,0.03c-0.01,0.01 -0.04,0.02 -0.07,0.01c-0.03,0 -0.07,0 -0.1,0l-0.25,0c-0.04,0 -0.08,0 -0.12,0c-0.04,0 -0.06,-0.02 -0.08,-0.06c-0.02,-0.03 -0.04,-0.08 -0.04,-0.14c0,-0.06 -0.01,-0.11 -0.02,-0.16c0,-0.01 0,-0.02 0,-0.03c0,-0.01 0,-0.02 0,-0.03c0,-0.04 -0.01,-0.08 -0.01,-0.11c0,-0.05 0,-0.08 -0.01,-0.12c0,0 0,-0.02 0,-0.03c-0.01,-0.04 -0.01,-0.07 -0.02,-0.11c0,-0.03 -0.01,-0.06 -0.02,-0.1c-0.02,-0.07 -0.05,-0.13 -0.08,-0.18c-0.04,-0.05 -0.08,-0.1 -0.14,-0.12c-0.02,0 -0.03,-0.01 -0.05,-0.01c-0.01,0 -0.03,-0.01 -0.04,-0.01c-0.06,-0.03 -0.12,-0.03 -0.19,-0.03l-0.58,0c0,0 -0.04,0.01 -0.06,0.01c-0.02,0 -0.03,0.01 -0.04,0.03c-0.03,0.03 -0.04,0.07 -0.04,0.14c0,0.06 0,0.11 0,0.17l0,0.57c0,0 0,0.05 0,0.08c0,0.02 0,0.05 0,0.07l0,0.07c0,0 0,0.03 -0.01,0.04c-0.01,0.03 -0.02,0.05 -0.05,0.06c-0.02,0 -0.03,0.01 -0.05,0.01l-0.27,0c-0.05,0 -0.1,0 -0.15,0c-0.06,0 -0.1,-0.01 -0.13,-0.03c-0.02,-0.01 -0.03,-0.04 -0.03,-0.08l0,-2.84c0,-0.03 0,-0.07 0,-0.1c0,-0.04 0,-0.07 0.02,-0.09c0.01,-0.02 0.03,-0.03 0.06,-0.05c0.01,0 0.01,0 0.02,0c0.01,0 0.02,0 0.03,0l1.52,0c0.05,0 0.1,0 0.13,0c0.05,0 0.09,0.01 0.13,0.02c0.01,0 0.03,0.01 0.05,0.01c0.01,0 0.03,0 0.04,0c0.03,0.01 0.05,0.02 0.07,0.03c0.02,0 0.04,0.01 0.06,0.02c0.08,0.03 0.15,0.07 0.21,0.12c0.06,0.05 0.11,0.1 0.15,0.17c0.01,0.01 0.02,0.03 0.03,0.05c0,0.01 0.01,0.03 0.03,0.04c0.02,0.05 0.04,0.09 0.05,0.13c0.02,0.05 0.03,0.09 0.05,0.15c0,0.01 0,0.02 0,0.04c0,0.01 0,0.02 0,0.04l0,0.04c0,0 0.01,0.05 0,0.08c0,0.03 -0.01,0.06 -0.01,0.08c0,0.03 -0.01,0.05 -0.01,0.07c0,0.02 0,0.04 -0.01,0.05c-0.02,0.05 -0.03,0.09 -0.04,0.13c-0.02,0.04 -0.04,0.08 -0.06,0.12c-0.01,0.01 -0.02,0.02 -0.02,0.03c-0.01,0.01 -0.02,0.01 -0.02,0.03c-0.01,0.01 -0.02,0.02 -0.03,0.03c-0.01,0.01 -0.02,0.02 -0.03,0.04c-0.02,0.01 -0.04,0.02 -0.06,0.04c-0.02,0.01 -0.03,0.03 -0.06,0.04c-0.01,0.01 -0.02,0.02 -0.03,0.03c-0.01,0.01 -0.02,0.02 -0.03,0.04c-0.01,0.02 0,0.03 0.01,0.05c0.01,0.01 0.02,0.02 0.03,0.03c0.04,0.02 0.06,0.04 0.09,0.07c0.03,0.02 0.06,0.05 0.08,0.08c0.04,0.05 0.06,0.1 0.08,0.16c0.03,0.05 0.05,0.11 0.06,0.18c0.01,0.03 0.01,0.05 0.01,0.09c0,0.02 0.01,0.05 0.02,0.08c0,0.02 0,0.04 0,0.05c0,0.02 0,0.04 0,0.05c0,0.01 0,0.03 0,0.04c0,0.01 0,0.03 0,0.04c0,0.01 0,0.02 0,0.04c0,0.01 0,0.03 0,0.04c0,0.03 0.01,0.06 0.01,0.09c0,0.03 0,0.06 0.01,0.1l0.01,0.08c0,0 0.01,0.05 0.01,0.08c0,0.02 0.01,0.05 0.02,0.07l0,0zm-0.74,-2.03c0,-0.03 0.01,-0.07 0,-0.12c0,-0.05 -0.01,-0.08 -0.02,-0.11c0,-0.01 -0.01,-0.02 -0.01,-0.03c0,-0.01 0,-0.01 -0.01,-0.03c-0.04,-0.09 -0.1,-0.16 -0.2,-0.2c-0.04,-0.02 -0.1,-0.04 -0.17,-0.04c-0.07,0 -0.14,0 -0.21,0l-0.52,0c0,0 -0.01,0 -0.01,0c-0.01,0 -0.01,0 -0.02,0c-0.04,0.01 -0.06,0.02 -0.08,0.05c-0.01,0.02 -0.02,0.05 -0.02,0.09c0,0.03 0,0.07 0,0.1l0,0.53c0,0.04 0.01,0.06 0.02,0.09c0.02,0.02 0.04,0.03 0.06,0.03c0.03,0.01 0.06,0.01 0.09,0.02c0.04,0 0.07,0 0.11,0c0.03,0 0.06,0 0.09,0l0.27,0c0,0 0.04,0 0.06,0c0.03,0 0.05,0 0.07,-0.01l0.05,0c0,0 0.05,-0.01 0.07,-0.01c0.03,0 0.05,0 0.07,-0.01c0.05,-0.01 0.09,-0.03 0.13,-0.06c0.04,-0.02 0.08,-0.05 0.1,-0.09c0.02,-0.03 0.03,-0.06 0.04,-0.09c0.01,-0.03 0.02,-0.07 0.03,-0.11l0.01,0z" fill="#ffffff" id="svg_13"/>
   <path d="m77.09,39.1l0.46,0c0.04,0 0.07,0 0.09,0.02c0.03,0.01 0.04,0.04 0.05,0.07c0.01,0.03 0.02,0.06 0.03,0.09c0.03,0.06 0.04,0.12 0.06,0.18c0.02,0.05 0.04,0.11 0.06,0.17c0.06,0.19 0.11,0.37 0.17,0.56c0.06,0.18 0.12,0.37 0.18,0.56c0.02,0.05 0.03,0.1 0.05,0.15c0.02,0.05 0.03,0.1 0.05,0.15c0.01,0.03 0.01,0.05 0.02,0.08c0.02,0.03 0.03,0.05 0.04,0.07c0,0.01 0.01,0.01 0.01,0.01c0,0 0.01,0.01 0.02,0.01c0.03,0 0.05,-0.01 0.06,-0.04c0.01,-0.03 0.02,-0.06 0.03,-0.08c0.03,-0.07 0.05,-0.13 0.06,-0.2c0.03,-0.06 0.04,-0.13 0.07,-0.2c0.06,-0.2 0.13,-0.4 0.19,-0.59c0.06,-0.2 0.13,-0.39 0.19,-0.59c0.02,-0.05 0.03,-0.1 0.04,-0.14c0.02,-0.05 0.03,-0.09 0.05,-0.14c0.01,-0.03 0.02,-0.05 0.03,-0.07c0,-0.02 0.02,-0.04 0.05,-0.06c0.02,-0.01 0.04,-0.02 0.07,-0.02l0.48,0c0.03,0 0.05,0.01 0.07,0.02c0.03,0.02 0.04,0.05 0.03,0.08c0,0.04 -0.02,0.08 -0.03,0.11c-0.02,0.07 -0.04,0.13 -0.07,0.21c-0.02,0.08 -0.05,0.14 -0.07,0.22c-0.01,0.02 -0.02,0.04 -0.02,0.05c0,0.02 -0.01,0.04 -0.02,0.06c-0.03,0.06 -0.05,0.12 -0.06,0.19c-0.02,0.06 -0.05,0.13 -0.07,0.2c-0.08,0.24 -0.16,0.48 -0.24,0.73c-0.08,0.24 -0.16,0.49 -0.24,0.73c-0.03,0.06 -0.05,0.14 -0.07,0.21c-0.02,0.07 -0.04,0.14 -0.06,0.21c-0.02,0.04 -0.04,0.08 -0.05,0.11c-0.02,0.03 -0.05,0.06 -0.09,0.07c-0.03,0 -0.05,0.01 -0.08,0c-0.03,0 -0.06,0 -0.09,0l-0.32,0c-0.03,0 -0.07,0 -0.11,0c-0.04,0 -0.06,0 -0.09,-0.01c-0.03,-0.02 -0.05,-0.05 -0.07,-0.09c-0.01,-0.04 -0.02,-0.07 -0.03,-0.1c-0.02,-0.07 -0.03,-0.13 -0.06,-0.2c-0.02,-0.06 -0.03,-0.13 -0.06,-0.19c-0.06,-0.18 -0.12,-0.37 -0.18,-0.56c-0.06,-0.2 -0.13,-0.39 -0.19,-0.58c-0.03,-0.08 -0.05,-0.17 -0.08,-0.26c-0.02,-0.08 -0.05,-0.17 -0.08,-0.25c-0.01,-0.03 -0.02,-0.05 -0.03,-0.08c0,-0.03 -0.01,-0.05 -0.03,-0.08c-0.02,-0.09 -0.05,-0.17 -0.07,-0.25c-0.03,-0.08 -0.05,-0.16 -0.09,-0.24c0,-0.03 -0.01,-0.06 -0.02,-0.08c-0.01,-0.02 -0.02,-0.05 -0.02,-0.08c0,-0.01 -0.01,-0.03 -0.01,-0.04c0,-0.02 0,-0.03 0.01,-0.04c0,-0.02 0.02,-0.04 0.05,-0.04c0.01,0 0.02,0 0.03,0c0.01,0 0.01,0 0.02,0l-0.02,-0.02z" fill="#ffffff" id="svg_14"/>
   <path d="m84.04,40.58c0,0 0.01,0.05 0.01,0.09c0,0.05 0,0.08 -0.01,0.1l0,0.05c0,0.03 -0.01,0.06 -0.01,0.1c0,0.03 0,0.06 -0.01,0.09c0,0.02 -0.01,0.04 -0.01,0.07c0,0.02 -0.01,0.04 -0.01,0.06c-0.02,0.05 -0.03,0.11 -0.05,0.16c-0.01,0.04 -0.03,0.1 -0.05,0.15c-0.09,0.21 -0.21,0.38 -0.36,0.52c-0.16,0.14 -0.34,0.24 -0.57,0.31c-0.03,0.01 -0.06,0.03 -0.09,0.03c-0.04,0.01 -0.07,0.01 -0.1,0.02c-0.02,0 -0.03,0.01 -0.05,0.01c-0.02,0 -0.03,0 -0.05,0l-0.15,0.01c0,0 -0.03,0 -0.06,0c-0.03,0 -0.05,0 -0.06,-0.01c-0.02,0 -0.03,0 -0.04,0c-0.01,0 -0.03,0 -0.05,0l-0.05,0c0,0 -0.04,-0.01 -0.06,-0.01c-0.02,0 -0.04,0 -0.06,-0.01c-0.03,0 -0.05,-0.01 -0.07,-0.01c-0.03,0 -0.05,-0.02 -0.07,-0.02c-0.04,-0.01 -0.07,-0.03 -0.11,-0.04c-0.03,-0.01 -0.07,-0.03 -0.1,-0.04c-0.18,-0.08 -0.33,-0.18 -0.45,-0.31c-0.13,-0.13 -0.23,-0.29 -0.31,-0.46c-0.02,-0.05 -0.03,-0.09 -0.04,-0.14c-0.01,-0.05 -0.03,-0.09 -0.04,-0.14c-0.01,-0.01 -0.01,-0.02 -0.01,-0.04c0,-0.01 0,-0.02 0,-0.03c-0.01,-0.02 -0.01,-0.04 -0.01,-0.06c0,-0.02 -0.01,-0.05 -0.02,-0.07c0,-0.02 0,-0.03 0,-0.04c0,-0.02 0,-0.03 0,-0.04c0,-0.02 0,-0.04 0,-0.06c0,-0.02 0,-0.03 0,-0.05c-0.01,-0.02 -0.01,-0.04 -0.01,-0.07c0,-0.04 0,-0.06 0.01,-0.07c0,-0.02 0,-0.03 0,-0.05c0,-0.01 0,-0.02 0,-0.04l0,-0.03c0,0 0.01,-0.03 0,-0.06c0,-0.02 0,-0.03 0.01,-0.05c0,-0.02 0.01,-0.03 0.01,-0.05c0,-0.01 0,-0.03 0.01,-0.05c0.02,-0.05 0.03,-0.1 0.04,-0.15c0,-0.04 0.02,-0.09 0.03,-0.14c0.03,-0.05 0.05,-0.1 0.07,-0.15c0.02,-0.05 0.05,-0.1 0.07,-0.15c0.1,-0.14 0.2,-0.26 0.31,-0.36c0.12,-0.09 0.26,-0.17 0.42,-0.24c0.05,-0.02 0.08,-0.03 0.13,-0.04c0.04,-0.01 0.08,-0.02 0.13,-0.03c0.01,-0.01 0.02,-0.01 0.04,-0.01c0.02,0 0.03,0 0.04,0l0.14,-0.01c0,0 0.01,0 0.02,0c0.01,0 0.02,0 0.02,0c0.22,-0.01 0.4,0.01 0.56,0.06c0.15,0.05 0.29,0.12 0.42,0.2c0.03,0.03 0.08,0.06 0.12,0.1c0.04,0.03 0.07,0.07 0.1,0.1c0.02,0.01 0.03,0.03 0.04,0.05c0.02,0.01 0.03,0.03 0.05,0.04c0.03,0.05 0.06,0.1 0.09,0.15c0.04,0.05 0.06,0.1 0.09,0.16c0.02,0.04 0.03,0.08 0.05,0.12c0.01,0.04 0.02,0.08 0.04,0.12c0.01,0.03 0.02,0.06 0.02,0.09c0.01,0.03 0.01,0.07 0.02,0.1c0.01,0.02 0.01,0.04 0.01,0.06c0,0.01 0,0.04 0.01,0.05c0.01,0.02 0.02,0.04 0.01,0.06c0,0.02 0,0.03 0,0.05l0,0.04l0,0.01zm-0.69,0.19c0,0 0,-0.04 0,-0.06c0,-0.04 0,-0.05 0,-0.07l0,-0.07c0,0 0,-0.02 0,-0.04c0,-0.01 0,-0.02 -0.01,-0.03c0,-0.02 -0.01,-0.05 -0.01,-0.07c0,-0.02 0,-0.04 -0.01,-0.06c0,-0.02 0,-0.03 -0.01,-0.05c-0.01,-0.03 -0.02,-0.06 -0.03,-0.1c-0.01,-0.03 -0.02,-0.06 -0.03,-0.09c-0.07,-0.16 -0.17,-0.28 -0.29,-0.37c-0.12,-0.1 -0.29,-0.14 -0.51,-0.14c-0.01,0 -0.01,0 -0.02,0c-0.01,0 -0.02,0 -0.03,0c-0.01,0 -0.02,0 -0.03,0c-0.01,0 -0.03,0 -0.05,0c-0.03,0.01 -0.06,0.01 -0.09,0.02c-0.04,0.01 -0.06,0.02 -0.09,0.03c-0.13,0.05 -0.22,0.13 -0.29,0.23c-0.08,0.09 -0.14,0.21 -0.18,0.34c-0.01,0.03 -0.02,0.06 -0.02,0.1c0,0.03 -0.01,0.06 -0.02,0.09c0,0.01 0,0.02 0,0.03c0,0.02 0,0.03 0,0.04c-0.01,0.01 -0.02,0.03 0,0.05c0,0.01 0,0.03 0,0.04c-0.01,0.02 -0.02,0.05 -0.02,0.09c0,0.04 0,0.06 0.01,0.08l0,0.05c0,0 0.01,0.03 0.01,0.04c0,0.01 0,0.02 0,0.03c0,0.01 0,0.02 0,0.04c0,0.01 0,0.02 0,0.03c0,0.03 0.01,0.06 0.02,0.09c0,0.04 0.01,0.07 0.02,0.1c0.03,0.1 0.07,0.18 0.12,0.27c0.05,0.08 0.11,0.15 0.18,0.2c0.02,0.02 0.03,0.03 0.05,0.04c0.02,0.01 0.03,0.02 0.06,0.03c0.03,0.02 0.06,0.03 0.1,0.05c0.04,0.01 0.08,0.02 0.12,0.03c0.02,0.01 0.03,0.01 0.04,0.01c0.02,0 0.03,0 0.05,0c0.01,0 0.04,0.01 0.05,0.01l0.1,0c0,0 0.02,0 0.04,0c0.01,0 0.03,0 0.04,-0.01c0.03,0 0.06,-0.01 0.09,-0.02c0.03,0 0.06,-0.01 0.09,-0.02c0.12,-0.05 0.23,-0.12 0.3,-0.2c0.08,-0.08 0.14,-0.19 0.18,-0.32c0.02,-0.03 0.03,-0.06 0.04,-0.11c0.01,-0.03 0.02,-0.07 0.03,-0.11l0.01,-0.11c0,0 0,-0.02 0,-0.04l0,-0.07l-0.01,0z" fill="#ffffff" id="svg_15"/>
   <path d="m85.57,39.09l0.38,0c0.03,0 0.06,0 0.1,0c0.03,0 0.05,0.02 0.07,0.03c0.01,0.03 0.02,0.06 0.02,0.09c0,0.04 0,0.08 0,0.12l0,1.53c0,0 0,0.02 0,0.04c0,0.01 0,0.03 0,0.04l0,0.07c0,0.02 0,0.05 0,0.08c0,0.03 0,0.06 0.01,0.08c0,0.02 0,0.04 0,0.05c0,0.03 0.01,0.07 0.01,0.1c0.01,0.03 0.01,0.06 0.03,0.09c0.03,0.08 0.08,0.15 0.13,0.2c0.05,0.05 0.12,0.09 0.21,0.12c0.02,0 0.05,0.01 0.07,0.01c0.02,0 0.05,0.01 0.07,0.01c0.01,0.01 0.03,0.01 0.04,0.01c0.01,0 0.02,0 0.03,0c0.01,0 0.04,0 0.06,0c0.03,0 0.05,0 0.06,-0.01l0.06,0c0,0 0.05,-0.01 0.07,-0.01c0.03,0 0.05,-0.01 0.06,-0.01c0.05,-0.01 0.08,-0.02 0.1,-0.03c0.05,-0.03 0.1,-0.06 0.14,-0.1c0.04,-0.04 0.07,-0.08 0.1,-0.14c0.03,-0.07 0.05,-0.16 0.05,-0.27c0.01,-0.11 0.01,-0.22 0.01,-0.33l0,-1.49c0,-0.04 0,-0.09 0,-0.14c0,-0.05 0.01,-0.09 0.02,-0.11c0.02,-0.02 0.04,-0.03 0.07,-0.03c0.02,0 0.06,-0.01 0.09,-0.01l0.28,0c0,0 0.05,0 0.07,0c0.02,0 0.05,0 0.07,0.01c0.04,0 0.07,0.02 0.08,0.04c0.01,0.03 0.02,0.06 0.02,0.11c0,0.04 0,0.08 0,0.11l0,1.51c0,0.11 0,0.22 0,0.33c0,0.11 -0.02,0.21 -0.04,0.29c-0.04,0.14 -0.09,0.27 -0.16,0.37c-0.06,0.1 -0.15,0.19 -0.25,0.26c-0.09,0.07 -0.21,0.12 -0.33,0.16c-0.03,0.01 -0.05,0.02 -0.08,0.02c-0.03,0.01 -0.06,0.01 -0.09,0.02c-0.01,0.01 -0.03,0.01 -0.05,0.01c-0.01,0 -0.03,0 -0.05,0.01c-0.03,0.01 -0.08,0.01 -0.12,0.01c-0.05,0 -0.09,0 -0.13,0c-0.28,0 -0.52,-0.03 -0.72,-0.1c-0.21,-0.08 -0.36,-0.2 -0.48,-0.36c-0.03,-0.05 -0.07,-0.11 -0.09,-0.17c-0.03,-0.05 -0.05,-0.12 -0.07,-0.18c-0.01,-0.02 -0.01,-0.03 -0.01,-0.04c0,-0.01 0,-0.02 -0.01,-0.04c-0.02,-0.08 -0.04,-0.18 -0.04,-0.28l0,-1.97c0,-0.03 0,-0.05 0.02,-0.07c0.02,-0.02 0.04,-0.03 0.07,-0.04l0.02,0c0,0 0.01,0 0.01,0l0.02,0z" fill="#ffffff" id="svg_16"/>
   <path d="m90.77,39.03c0.58,-0.01 0.97,0.16 1.19,0.52c0.03,0.05 0.06,0.09 0.07,0.14c0.02,0.06 0.03,0.11 0.05,0.17c0.01,0.02 0.01,0.05 0.01,0.08c0,0.03 -0.01,0.05 -0.03,0.07c-0.01,0.02 -0.03,0.03 -0.06,0.03c-0.03,0 -0.06,0.01 -0.09,0.01l-0.37,0c-0.02,0 -0.04,0 -0.06,-0.01c-0.04,-0.02 -0.06,-0.04 -0.06,-0.07c-0.02,-0.03 -0.03,-0.06 -0.04,-0.1c-0.01,-0.02 -0.03,-0.05 -0.05,-0.09c-0.02,-0.03 -0.04,-0.06 -0.06,-0.08c-0.05,-0.03 -0.09,-0.06 -0.13,-0.08c-0.04,-0.01 -0.08,-0.02 -0.13,-0.04c-0.06,-0.01 -0.11,-0.01 -0.16,-0.02c-0.06,0 -0.11,0 -0.16,0c-0.06,0.01 -0.11,0.02 -0.14,0.04c-0.07,0.03 -0.13,0.07 -0.16,0.11c-0.04,0.04 -0.07,0.1 -0.09,0.18c0,0.02 0,0.04 0,0.07c0,0.03 0.02,0.05 0.02,0.06c0.02,0.06 0.06,0.11 0.1,0.13c0.05,0.03 0.1,0.05 0.16,0.08c0.03,0.01 0.06,0.03 0.1,0.03c0.03,0.01 0.07,0.02 0.11,0.03c0.08,0.02 0.16,0.05 0.24,0.07c0.09,0.01 0.17,0.04 0.26,0.06c0.01,0.01 0.03,0.01 0.04,0.01c0.02,0 0.03,0 0.05,0.01c0.06,0.02 0.12,0.04 0.19,0.06c0.06,0.02 0.12,0.05 0.17,0.08c0.08,0.05 0.15,0.1 0.21,0.15c0.06,0.05 0.11,0.12 0.16,0.2c0.02,0.02 0.03,0.04 0.04,0.08c0.01,0.02 0.02,0.06 0.03,0.09c0,0.01 0,0.01 0,0.02c0,0.01 0,0.02 0,0.03c0.01,0.04 0.02,0.1 0.02,0.18c0,0.01 0,0.03 0,0.04l0,0.08c0,0.03 -0.01,0.07 -0.01,0.09c0,0.04 -0.01,0.06 -0.02,0.09c-0.02,0.06 -0.04,0.11 -0.06,0.15c-0.02,0.05 -0.05,0.09 -0.08,0.13c-0.01,0.02 -0.02,0.03 -0.04,0.04c-0.01,0.01 -0.02,0.02 -0.03,0.04c-0.01,0.02 -0.03,0.04 -0.05,0.05c-0.02,0.02 -0.03,0.03 -0.05,0.05c-0.02,0.01 -0.04,0.02 -0.05,0.04c-0.02,0.01 -0.04,0.02 -0.06,0.04c-0.04,0.03 -0.1,0.05 -0.16,0.08c-0.05,0.02 -0.11,0.04 -0.17,0.06c-0.04,0.02 -0.09,0.02 -0.13,0.03c-0.05,0 -0.09,0.01 -0.13,0.02c-0.02,0 -0.05,0.01 -0.06,0c-0.02,0 -0.04,0 -0.06,0.01l-0.04,0c0,0 -0.01,0 -0.02,0c-0.02,0 -0.03,0 -0.03,0c-0.02,0 -0.04,0 -0.08,0c-0.03,0 -0.06,0 -0.07,0l-0.05,0c0,0 -0.04,-0.01 -0.06,-0.01c-0.03,0 -0.05,0 -0.06,0c-0.02,0 -0.03,0 -0.04,0c-0.01,0 -0.03,0 -0.04,-0.01c-0.04,-0.01 -0.07,-0.01 -0.11,-0.02c-0.04,0 -0.08,-0.01 -0.11,-0.03c-0.14,-0.04 -0.27,-0.1 -0.38,-0.18c-0.11,-0.07 -0.21,-0.17 -0.28,-0.29c-0.05,-0.07 -0.08,-0.15 -0.11,-0.25c0,-0.02 -0.01,-0.04 -0.01,-0.06c0,-0.01 0,-0.04 -0.01,-0.06c-0.01,-0.02 -0.01,-0.05 -0.02,-0.08c0,-0.04 0,-0.06 0.02,-0.08c0.02,-0.03 0.04,-0.04 0.07,-0.04c0.02,0 0.06,-0.01 0.09,-0.01l0.36,0c0.03,0 0.05,0 0.07,0.01c0.04,0.02 0.06,0.04 0.06,0.08c0.01,0.03 0.02,0.07 0.03,0.11c0.01,0.03 0.03,0.07 0.05,0.09c0.02,0.03 0.03,0.06 0.06,0.09c0.01,0.01 0.03,0.03 0.04,0.05c0.02,0.01 0.04,0.02 0.06,0.03c0.07,0.05 0.14,0.08 0.24,0.11c0.02,0 0.04,0.01 0.06,0.01c0.02,0 0.04,0 0.06,0.01l0.02,0c0,0 0.06,0.01 0.1,0.01c0.04,0 0.08,0 0.1,-0.01c0,0 0.02,0 0.05,0c0.01,0 0.02,0 0.04,0c0.02,0 0.04,-0.01 0.05,-0.01c0.1,-0.03 0.18,-0.07 0.24,-0.11c0.06,-0.04 0.11,-0.12 0.13,-0.23c0,-0.02 0,-0.04 0,-0.07c0,-0.02 -0.01,-0.04 -0.02,-0.06c-0.03,-0.08 -0.08,-0.14 -0.15,-0.19c-0.01,0 -0.03,-0.01 -0.05,-0.02c-0.04,-0.03 -0.09,-0.05 -0.15,-0.07c-0.06,-0.01 -0.11,-0.03 -0.16,-0.05c-0.02,0 -0.04,-0.01 -0.06,-0.01c-0.02,0 -0.04,-0.01 -0.06,-0.02c-0.05,-0.02 -0.1,-0.03 -0.15,-0.04c-0.05,-0.01 -0.09,-0.02 -0.14,-0.03c-0.01,-0.01 -0.02,-0.01 -0.03,-0.01c-0.01,0 -0.03,0 -0.04,-0.02c-0.02,0 -0.04,-0.01 -0.06,-0.01c-0.02,0 -0.04,-0.01 -0.06,-0.02c-0.07,-0.02 -0.14,-0.05 -0.2,-0.07c-0.07,-0.03 -0.13,-0.06 -0.18,-0.09c-0.07,-0.04 -0.13,-0.1 -0.19,-0.15c-0.06,-0.06 -0.1,-0.13 -0.13,-0.21c-0.01,-0.02 -0.02,-0.05 -0.03,-0.08c0,-0.03 -0.02,-0.06 -0.02,-0.1c-0.01,-0.02 -0.01,-0.06 -0.02,-0.11c0,-0.05 0,-0.09 0.01,-0.12c0,-0.01 0,-0.03 0,-0.05c0.01,-0.04 0.01,-0.07 0.02,-0.1c0.01,-0.03 0.02,-0.06 0.03,-0.09c0.05,-0.1 0.1,-0.19 0.17,-0.27c0.07,-0.07 0.15,-0.13 0.24,-0.19c0.06,-0.04 0.12,-0.07 0.19,-0.09c0.07,-0.02 0.14,-0.04 0.22,-0.06c0.03,0 0.06,-0.01 0.09,-0.01c0.03,0 0.06,0 0.08,-0.01c0.02,0 0.03,0 0.05,0c0.02,0 0.03,0 0.04,0l0.01,-0.04z" fill="#ffffff" id="svg_17"/>
   <path d="m94.21,42.11c0,0.04 0,0.1 0,0.17c0,0.06 0,0.11 -0.01,0.15c-0.03,0.11 -0.07,0.21 -0.12,0.28c-0.05,0.07 -0.12,0.13 -0.21,0.19c-0.05,0.03 -0.11,0.06 -0.18,0.09c-0.01,0 -0.02,0.01 -0.04,0.01c-0.02,0.01 -0.03,0.01 -0.05,0c-0.02,0 -0.04,-0.01 -0.05,-0.02c-0.02,-0.03 -0.02,-0.06 -0.03,-0.11c0,-0.04 0,-0.08 0.02,-0.11c0.01,-0.03 0.02,-0.05 0.05,-0.07c0.03,-0.01 0.05,-0.03 0.08,-0.05c0.04,-0.03 0.08,-0.08 0.12,-0.15c0,-0.01 0.01,-0.03 0.03,-0.05c0.01,-0.02 0.01,-0.05 0,-0.07c-0.01,-0.04 -0.03,-0.07 -0.07,-0.08c-0.04,-0.01 -0.07,-0.01 -0.11,-0.01c-0.03,0 -0.06,0 -0.08,-0.01c-0.02,-0.02 -0.03,-0.04 -0.03,-0.07c0,-0.03 -0.01,-0.06 -0.01,-0.09l0,-0.38c0,-0.03 0.01,-0.05 0.02,-0.07c0.02,-0.03 0.04,-0.04 0.07,-0.05c0.01,0 0.01,0 0.02,0c0.01,0 0.02,0 0.02,-0.01l0.37,0c0.04,0 0.07,0 0.1,0c0.03,0 0.05,0.01 0.07,0.04c0.02,0.02 0.02,0.04 0.02,0.07l0,0.39l0,0.01z" fill="#ffffff" id="svg_18"/>
   <path d="m98.04,39.1l0.74,0c0.04,0 0.08,0.01 0.11,0.03c0.02,0.02 0.04,0.04 0.05,0.06c0.01,0.03 0.01,0.06 0.02,0.09c0.02,0.05 0.04,0.1 0.05,0.14c0.02,0.05 0.03,0.11 0.06,0.15c0.07,0.19 0.13,0.39 0.19,0.58c0.06,0.19 0.13,0.38 0.2,0.58c0.02,0.06 0.04,0.12 0.06,0.18c0.02,0.06 0.04,0.12 0.07,0.18c0,0.02 0.01,0.03 0.01,0.05c0.01,0.02 0.02,0.03 0.03,0.04c0.01,0 0.02,0 0.03,0.01c0,0 0.01,0 0.01,0c0.02,-0.01 0.05,-0.02 0.05,-0.05c0.01,-0.03 0.02,-0.06 0.03,-0.08c0.02,-0.07 0.05,-0.14 0.06,-0.21c0.02,-0.07 0.04,-0.13 0.07,-0.2c0.06,-0.19 0.11,-0.37 0.17,-0.55c0.06,-0.18 0.12,-0.37 0.19,-0.55c0.01,-0.05 0.02,-0.1 0.04,-0.14c0.02,-0.05 0.03,-0.09 0.05,-0.14c0.01,-0.03 0.01,-0.05 0.02,-0.07c0.01,-0.03 0.03,-0.04 0.05,-0.06c0.02,-0.02 0.04,-0.02 0.07,-0.02l0.77,0c0.03,0 0.05,0 0.07,0.02c0.03,0.02 0.05,0.05 0.05,0.1l0,2.88c0,0.03 0,0.06 0,0.09c0,0.04 -0.01,0.06 -0.03,0.07c-0.02,0.02 -0.04,0.03 -0.07,0.03c-0.03,0 -0.05,0 -0.09,0l-0.33,0c0,0 -0.05,-0.01 -0.06,-0.01c-0.02,0 -0.03,-0.02 -0.05,-0.03c-0.01,-0.02 -0.01,-0.03 -0.01,-0.06l0,-1.46c0,-0.04 0,-0.08 0,-0.11l0,-0.12c0,0 0,-0.04 0,-0.07c0,-0.03 0,-0.05 -0.01,-0.08c0,-0.02 -0.01,-0.04 -0.01,-0.07c0,-0.02 -0.01,-0.03 -0.02,-0.04c-0.01,0 -0.02,0 -0.03,0c0,0 0,0.01 -0.01,0.01c-0.01,0.01 -0.02,0.03 -0.02,0.04c-0.01,0.02 -0.02,0.04 -0.03,0.05c-0.01,0.05 -0.03,0.09 -0.05,0.14c-0.01,0.05 -0.03,0.1 -0.05,0.15c0,0.02 -0.01,0.03 -0.02,0.05c0,0.02 -0.01,0.04 -0.02,0.05c-0.02,0.04 -0.03,0.09 -0.04,0.12c-0.01,0.04 -0.02,0.08 -0.03,0.12c-0.01,0.01 -0.02,0.02 -0.02,0.03c0,0.01 0,0.02 -0.01,0.02c-0.01,0.03 -0.02,0.06 -0.03,0.09c0,0.03 -0.01,0.06 -0.03,0.09c-0.01,0.03 -0.02,0.05 -0.03,0.09c0,0.03 -0.01,0.06 -0.02,0.09c-0.04,0.08 -0.07,0.17 -0.1,0.26c-0.02,0.09 -0.06,0.18 -0.09,0.26c0,0.01 -0.01,0.03 -0.01,0.03c0,0.01 0,0.02 -0.01,0.03c-0.01,0.03 -0.03,0.06 -0.04,0.1c-0.01,0.03 -0.02,0.07 -0.03,0.1c-0.01,0.02 -0.02,0.04 -0.03,0.06c-0.01,0.02 -0.02,0.03 -0.03,0.04c-0.02,0.01 -0.03,0.03 -0.05,0.03c-0.01,0 -0.03,0 -0.05,0.01l-0.1,0c0,0 -0.05,0 -0.08,0c-0.02,0 -0.05,0 -0.08,0c-0.03,0 -0.06,0 -0.08,0c-0.02,0 -0.04,-0.01 -0.05,-0.02c-0.02,-0.02 -0.04,-0.03 -0.05,-0.05c-0.01,-0.03 -0.02,-0.05 -0.03,-0.07c-0.02,-0.04 -0.03,-0.08 -0.04,-0.11c-0.01,-0.04 -0.02,-0.08 -0.04,-0.11l-0.01,-0.04c-0.01,-0.04 -0.03,-0.08 -0.03,-0.11c-0.02,-0.05 -0.03,-0.08 -0.04,-0.12c0,-0.01 -0.01,-0.02 -0.01,-0.03c0,0 0,-0.01 -0.01,-0.03c-0.01,-0.02 -0.02,-0.05 -0.04,-0.08c-0.01,-0.03 -0.02,-0.06 -0.03,-0.09c0,-0.01 0,-0.01 0,-0.02c0,-0.01 0,-0.02 -0.01,-0.03c-0.01,-0.03 -0.02,-0.05 -0.03,-0.09c-0.01,-0.02 -0.02,-0.06 -0.03,-0.09c-0.02,-0.06 -0.05,-0.12 -0.06,-0.19c-0.02,-0.06 -0.04,-0.12 -0.07,-0.19c-0.02,-0.07 -0.05,-0.15 -0.07,-0.23c-0.02,-0.07 -0.06,-0.15 -0.09,-0.22c-0.01,-0.04 -0.03,-0.07 -0.05,-0.1c0,0 -0.01,-0.01 -0.01,-0.02c-0.01,0 -0.02,0 -0.02,0c-0.02,0.01 -0.02,0.02 -0.02,0.05c0,0.02 0,0.04 -0.02,0.06c0,0.02 -0.01,0.04 0,0.06c0,0.03 0,0.05 0,0.07l0,0.1c0,0.03 0,0.06 0,0.1l0,1.48c0,0 -0.01,0.05 -0.02,0.06c-0.01,0.02 -0.03,0.03 -0.07,0.04c-0.02,0.01 -0.04,0.01 -0.07,0.01c-0.02,0 -0.04,0 -0.07,0l-0.23,0c-0.03,0 -0.06,0 -0.09,0c-0.02,0 -0.05,-0.01 -0.07,-0.03c-0.01,-0.02 -0.03,-0.04 -0.03,-0.07c0,-0.03 0,-0.07 0,-0.1l0,-2.83c0,0 0,-0.04 0,-0.07c0,-0.02 0.01,-0.03 0.01,-0.04c0.01,-0.02 0.04,-0.04 0.07,-0.05c0.01,0 0.01,0 0.02,0c0,0 0.01,0 0.01,0l-0.02,-0.02z" fill="#ffffff" id="svg_19"/>
   <path d="m105.91,40.58c0,0 0.01,0.05 0.01,0.09c0,0.05 0,0.08 -0.01,0.1l0,0.05c0,0.03 0,0.06 0,0.1c0,0.03 0,0.06 -0.02,0.09c0,0.02 -0.01,0.04 -0.01,0.07c0,0.02 -0.01,0.04 -0.01,0.06c-0.02,0.05 -0.03,0.11 -0.04,0.16c-0.02,0.04 -0.04,0.1 -0.06,0.15c-0.09,0.21 -0.21,0.38 -0.36,0.52c-0.15,0.14 -0.34,0.24 -0.56,0.31c-0.03,0.01 -0.07,0.03 -0.1,0.03c-0.03,0.01 -0.06,0.01 -0.09,0.02c-0.02,0 -0.04,0.01 -0.05,0.01c-0.02,0 -0.03,0 -0.05,0l-0.15,0.01c0,0 -0.03,0 -0.06,0c-0.03,0 -0.05,0 -0.06,-0.01c-0.01,0 -0.03,0 -0.04,0c-0.02,0 -0.03,0 -0.05,0l-0.04,0c0,0 -0.05,-0.01 -0.07,-0.01c-0.02,0 -0.04,0 -0.07,-0.01c-0.02,0 -0.05,-0.01 -0.07,-0.01c-0.02,0 -0.04,-0.02 -0.07,-0.02c-0.04,-0.01 -0.07,-0.03 -0.1,-0.04c-0.04,-0.01 -0.07,-0.03 -0.11,-0.04c-0.17,-0.08 -0.33,-0.18 -0.45,-0.31c-0.13,-0.13 -0.23,-0.29 -0.3,-0.46c-0.02,-0.05 -0.03,-0.09 -0.05,-0.14c-0.01,-0.05 -0.02,-0.09 -0.04,-0.14c0,-0.01 -0.01,-0.02 -0.01,-0.04c0,-0.01 0,-0.02 0,-0.03c-0.01,-0.02 -0.01,-0.04 -0.01,-0.06c0,-0.02 -0.01,-0.05 -0.02,-0.07c0,-0.02 0,-0.03 0,-0.04c0,-0.02 0,-0.03 0,-0.04c0,-0.02 0,-0.04 0,-0.06c0,-0.02 0,-0.03 0,-0.05c-0.01,-0.02 -0.01,-0.04 -0.01,-0.07c0,-0.04 0,-0.06 0.01,-0.07c0,-0.02 0,-0.03 0,-0.05c0,-0.01 0,-0.02 0,-0.04l0,-0.03c0,0 0.01,-0.03 0,-0.06c0,-0.02 0,-0.03 0.01,-0.05c0.01,-0.02 0.01,-0.03 0.01,-0.05c0,-0.01 0,-0.03 0.01,-0.05c0.02,-0.05 0.03,-0.1 0.04,-0.15c0.01,-0.04 0.02,-0.09 0.04,-0.14c0.02,-0.05 0.04,-0.1 0.06,-0.15c0.02,-0.05 0.05,-0.1 0.08,-0.15c0.09,-0.14 0.19,-0.26 0.31,-0.36c0.12,-0.09 0.25,-0.17 0.42,-0.24c0.04,-0.02 0.08,-0.03 0.12,-0.04c0.05,-0.01 0.09,-0.02 0.13,-0.03c0.02,-0.01 0.04,-0.01 0.04,-0.01c0.02,0 0.03,0 0.05,0l0.13,-0.01c0,0 0.01,0 0.02,0c0.02,0 0.02,0 0.03,0c0.21,-0.01 0.4,0.01 0.55,0.06c0.16,0.05 0.3,0.12 0.42,0.2c0.04,0.03 0.08,0.06 0.13,0.1c0.04,0.03 0.07,0.07 0.1,0.1c0.01,0.01 0.02,0.03 0.04,0.05c0.02,0.01 0.03,0.03 0.04,0.04c0.03,0.05 0.06,0.1 0.09,0.15c0.04,0.05 0.07,0.1 0.09,0.16c0.02,0.04 0.03,0.08 0.05,0.12c0.01,0.04 0.03,0.08 0.04,0.12c0.01,0.03 0.02,0.06 0.02,0.09c0,0.03 0.01,0.07 0.02,0.1c0.01,0.02 0.01,0.04 0.01,0.06c0,0.01 0,0.04 0.02,0.05c0,0.02 0,0.04 0,0.06c0,0.02 0,0.03 0,0.05l0,0.04l0,0.01zm-0.7,0.19c0,0 0.01,-0.04 0.01,-0.06c0,-0.04 0,-0.05 -0.01,-0.07l0,-0.07c0,0 0,-0.02 0,-0.04c0,-0.01 0,-0.02 0,-0.03c0,-0.02 -0.01,-0.05 -0.01,-0.07c0,-0.02 0,-0.04 -0.01,-0.06c0,-0.02 0,-0.03 -0.01,-0.05c-0.01,-0.03 -0.02,-0.06 -0.03,-0.1c-0.01,-0.03 -0.02,-0.06 -0.04,-0.09c-0.06,-0.16 -0.16,-0.28 -0.28,-0.37c-0.13,-0.1 -0.3,-0.14 -0.52,-0.14c0,0 -0.01,0 -0.02,0c-0.01,0 -0.01,0 -0.02,0c-0.01,0 -0.03,0 -0.04,0c-0.01,0 -0.03,0 -0.04,0c-0.03,0.01 -0.07,0.01 -0.1,0.02c-0.03,0.01 -0.06,0.02 -0.08,0.03c-0.13,0.05 -0.23,0.13 -0.3,0.23c-0.07,0.09 -0.14,0.21 -0.18,0.34c-0.01,0.03 -0.02,0.06 -0.02,0.1c0,0.03 -0.01,0.06 -0.02,0.09c0,0.01 0,0.02 0,0.03c0,0.02 0,0.03 0,0.04c-0.01,0.01 -0.02,0.03 -0.01,0.05c0,0.01 0,0.03 0,0.04c0,0.02 -0.01,0.05 -0.01,0.09c0,0.04 0,0.06 0,0.08l0,0.05c0,0 0,0.03 0,0.04c0,0.01 0,0.02 0.01,0.03c0,0.01 0,0.02 0,0.04c0,0.01 0,0.02 0,0.03c0.01,0.03 0.02,0.06 0.02,0.09c0,0.04 0.01,0.07 0.02,0.1c0.04,0.1 0.08,0.18 0.13,0.27c0.04,0.08 0.1,0.15 0.17,0.2c0.02,0.02 0.04,0.03 0.05,0.04c0.02,0.01 0.04,0.02 0.05,0.03c0.03,0.02 0.07,0.03 0.11,0.05c0.03,0.01 0.07,0.02 0.12,0.03c0.01,0.01 0.02,0.01 0.04,0.01c0.01,0 0.03,0 0.04,0c0.02,0 0.04,0.01 0.05,0.01l0.1,0c0,0 0.03,0 0.04,0c0.02,0 0.03,0 0.05,-0.01c0.03,0 0.06,-0.01 0.09,-0.02c0.03,0 0.06,-0.01 0.08,-0.02c0.13,-0.05 0.24,-0.12 0.31,-0.2c0.07,-0.08 0.13,-0.19 0.18,-0.32c0.02,-0.03 0.03,-0.06 0.04,-0.11c0.01,-0.03 0.01,-0.07 0.02,-0.11l0.02,-0.11c0,0 0,-0.02 0,-0.04l0,-0.07l0,0z" fill="#ffffff" id="svg_20"/>
   <path d="m110,41.29c0,0.03 0.01,0.08 0,0.13c0,0.05 -0.01,0.1 -0.02,0.12c0,0.04 -0.01,0.06 -0.01,0.09c-0.01,0.03 -0.02,0.05 -0.02,0.07c-0.07,0.15 -0.16,0.28 -0.29,0.37c-0.05,0.04 -0.11,0.07 -0.16,0.1c-0.06,0.02 -0.12,0.04 -0.19,0.07c-0.03,0.01 -0.07,0.02 -0.1,0.02c-0.04,0 -0.07,0.01 -0.11,0.01c-0.01,0 -0.02,0 -0.04,0c-0.01,0 -0.03,0 -0.04,0c-0.01,0 -0.02,0 -0.04,0c-0.01,0 -0.03,0 -0.04,0c-0.01,0 -0.03,0 -0.04,0c-0.02,0 -0.03,0 -0.04,0l-1.31,0c-0.05,0 -0.09,0 -0.13,0c-0.03,0 -0.06,-0.03 -0.08,-0.06c-0.01,-0.02 -0.01,-0.06 -0.01,-0.11c0,-0.05 0,-0.09 0,-0.12l0,-2.63c0,-0.04 0,-0.08 0,-0.11c0,-0.05 0,-0.08 0.02,-0.1c0.01,-0.02 0.04,-0.04 0.07,-0.05c0,0 0.01,0 0.02,0c0,0 0.01,0 0.01,0l1.34,0c0,0 0.04,0 0.06,0c0.02,0 0.04,0 0.06,0c0.02,0.01 0.03,0.01 0.05,0c0.02,0 0.03,0 0.04,0l0.03,0c0,0 0.04,0.01 0.05,0.01c0.02,0 0.04,0 0.06,0.01c0.03,0 0.05,0.01 0.07,0.01c0.02,0 0.05,0.01 0.07,0.01c0.06,0.03 0.11,0.04 0.16,0.06c0.05,0.02 0.1,0.05 0.14,0.08c0.06,0.04 0.11,0.09 0.15,0.15c0.04,0.07 0.07,0.14 0.09,0.22c0.01,0.02 0.01,0.04 0.01,0.06c0,0.02 0,0.05 0.01,0.07c0,0.01 0,0.02 0,0.03c0,0.02 0,0.03 0,0.04c0,0.01 0,0.02 0,0.03c0,0.02 0,0.03 0,0.03l0,0.04c0,0 0,0.02 0,0.03c0,0.01 0,0.02 0,0.03c-0.01,0.02 -0.01,0.04 -0.01,0.06c0,0.01 0,0.03 -0.01,0.05c-0.04,0.1 -0.09,0.19 -0.16,0.26c-0.02,0.03 -0.04,0.04 -0.06,0.06c-0.02,0.01 -0.04,0.03 -0.07,0.06c0,0 -0.01,0.01 -0.01,0.02c-0.01,0.01 -0.01,0.02 0,0.04c0,0.02 0.02,0.04 0.06,0.06c0.03,0.02 0.06,0.03 0.08,0.05c0.08,0.05 0.15,0.12 0.2,0.19c0.05,0.07 0.09,0.15 0.11,0.24c0.01,0.02 0.02,0.05 0.02,0.07c0,0.03 0.01,0.05 0.02,0.08l0,0.05l-0.01,0zm-1.95,-1.6c0,0 -0.02,0.05 -0.02,0.08l0,0.34c0,0 0,0.04 0,0.06c0,0.02 0,0.04 0,0.05l0,0.05c0,0 0.01,0.03 0.01,0.04c0,0.02 0.01,0.03 0.02,0.04c0.01,0.02 0.02,0.03 0.06,0.03c0.02,0.01 0.05,0.02 0.08,0.02c0.03,0 0.07,0 0.1,0c0.03,0 0.06,0 0.09,0c0.04,0 0.09,0 0.14,0c0.05,0 0.1,0 0.15,0c0.05,0 0.1,0 0.14,-0.01c0.04,-0.01 0.09,-0.01 0.12,-0.03c0.08,-0.02 0.15,-0.08 0.2,-0.15c0.02,-0.04 0.03,-0.09 0.04,-0.15c0.01,-0.1 -0.01,-0.19 -0.04,-0.24c-0.04,-0.06 -0.09,-0.11 -0.16,-0.14c-0.01,0 -0.04,-0.01 -0.06,-0.01c-0.02,-0.01 -0.04,-0.02 -0.07,-0.02c-0.01,0 -0.02,0 -0.05,0c-0.04,-0.01 -0.08,-0.01 -0.13,-0.01c-0.04,0 -0.09,0 -0.13,0l-0.38,0c0,0 -0.01,0 -0.02,0c-0.01,0 -0.02,0 -0.02,0c-0.03,0.01 -0.05,0.02 -0.06,0.04l-0.01,0.01zm1.26,1.67c0,-0.04 0,-0.09 -0.01,-0.13c-0.01,-0.05 -0.02,-0.09 -0.03,-0.11c-0.04,-0.11 -0.12,-0.18 -0.25,-0.23c-0.04,-0.01 -0.1,-0.02 -0.16,-0.02c-0.06,0 -0.13,-0.01 -0.19,-0.01l-0.51,0c0,0 -0.01,0.01 -0.02,0.01c0,0 -0.01,0 -0.01,0c-0.04,0 -0.06,0.02 -0.07,0.04c-0.02,0.02 -0.02,0.05 -0.02,0.09l0,0.51c0,0.03 0,0.07 0,0.11c0,0.04 0.01,0.06 0.02,0.08c0.01,0.02 0.04,0.03 0.06,0.04c0.03,0.01 0.06,0.01 0.09,0.01c0.04,0 0.07,0 0.11,0c0.04,0 0.07,0 0.1,0c0.08,0 0.17,0 0.25,0c0.09,0 0.17,0 0.24,-0.01c0.08,-0.01 0.14,-0.03 0.2,-0.06c0.06,-0.02 0.11,-0.06 0.14,-0.12c0.02,-0.02 0.03,-0.04 0.04,-0.08c0.01,-0.03 0.01,-0.06 0.02,-0.09l0,-0.03l0,0z" fill="#ffffff" id="svg_21"/>
   <path d="m111.54,39.1l0.38,0c0.03,0 0.07,0 0.1,0c0.03,0 0.05,0.01 0.06,0.03c0.02,0.03 0.03,0.05 0.03,0.08c0,0.04 0,0.07 0,0.11l0,2.68c0,0.04 0,0.09 0,0.13c0,0.05 0,0.09 -0.02,0.11c-0.01,0.02 -0.03,0.04 -0.08,0.05c-0.02,0 -0.04,0.01 -0.06,0c-0.02,0 -0.05,0 -0.07,0l-0.26,0c-0.04,0 -0.07,0 -0.09,0c-0.03,0 -0.06,-0.01 -0.07,-0.03c-0.02,-0.01 -0.03,-0.04 -0.03,-0.06c0,-0.03 0,-0.06 0,-0.09l0,-2.68c0,-0.04 0,-0.09 0,-0.15c0,-0.05 0,-0.09 0.01,-0.12c0.02,-0.02 0.04,-0.03 0.06,-0.05c0.02,0 0.02,0 0.03,0c0.01,0 0.02,0 0.02,0l-0.01,-0.01z" fill="#ffffff" id="svg_22"/>
   <path d="m113.8,39.1l0.38,0c0.03,0 0.06,0 0.1,0c0.03,0 0.05,0.01 0.06,0.03c0.02,0.02 0.03,0.05 0.03,0.08l0,2.15c0,0 0,0.04 0,0.07c0,0.02 0,0.04 0,0.06l0,0.04c0,0 0,0.05 0,0.06c0,0.02 0,0.04 0.01,0.06c0.02,0.03 0.07,0.05 0.13,0.05l1.05,0c0,0 0.05,0 0.09,0l0.1,0c0.03,0 0.06,0 0.09,0.01c0.03,0 0.05,0.02 0.06,0.03c0.02,0.02 0.02,0.04 0.02,0.07l0,0.29c0,0 0,0.04 0,0.06c0,0.02 0,0.04 0,0.05c-0.01,0.03 -0.03,0.04 -0.05,0.05c-0.01,0.01 -0.03,0.02 -0.06,0.02l-1.94,0c-0.04,0 -0.08,0 -0.11,-0.01c-0.03,0 -0.05,-0.02 -0.07,-0.04c-0.01,-0.02 -0.02,-0.04 -0.02,-0.07l0,-2.88c0,-0.03 0,-0.05 0,-0.08c0,-0.03 0.01,-0.05 0.02,-0.07c0.01,-0.02 0.04,-0.03 0.08,-0.04c0,0 0.01,0 0.01,0c0.01,0 0.01,0 0.02,0l0,0.01z" fill="#ffffff" id="svg_23"/>
   <path d="m117.38,39.1l0.38,0c0.04,0 0.07,0 0.1,0c0.03,0 0.05,0.01 0.07,0.03c0.02,0.03 0.02,0.05 0.03,0.08c0,0.04 0,0.07 0,0.11l0,2.68c0,0.04 0,0.09 0,0.13c0,0.05 0,0.09 -0.02,0.11c-0.01,0.02 -0.04,0.04 -0.08,0.05c-0.02,0 -0.04,0.01 -0.07,0c-0.02,0 -0.05,0 -0.07,0l-0.26,0c-0.03,0 -0.07,0 -0.09,0c-0.04,0 -0.06,-0.01 -0.07,-0.03c-0.02,-0.01 -0.03,-0.04 -0.03,-0.06c0,-0.03 0,-0.06 0,-0.09l0,-2.68c0,-0.04 0,-0.09 0,-0.15c0,-0.05 0,-0.09 0.02,-0.12c0.01,-0.02 0.03,-0.03 0.06,-0.05c0.01,0 0.02,0 0.03,0c0.01,0 0.01,0 0.02,0l-0.02,-0.01z" fill="#ffffff" id="svg_24"/>
   <path d="m120.57,39.03c0.58,-0.01 0.98,0.16 1.2,0.52c0.03,0.05 0.05,0.09 0.07,0.14c0.01,0.06 0.03,0.11 0.05,0.17c0,0.02 0.01,0.05 0,0.08c0,0.03 0,0.05 -0.02,0.07c-0.02,0.02 -0.04,0.03 -0.06,0.03c-0.03,0 -0.06,0.01 -0.09,0.01l-0.37,0c-0.02,0 -0.04,0 -0.07,-0.01c-0.03,-0.02 -0.06,-0.04 -0.07,-0.07c0,-0.03 -0.02,-0.06 -0.03,-0.1c-0.01,-0.02 -0.03,-0.05 -0.05,-0.09c-0.02,-0.03 -0.05,-0.06 -0.07,-0.08c-0.04,-0.03 -0.08,-0.06 -0.12,-0.08c-0.04,-0.01 -0.08,-0.02 -0.13,-0.04c-0.06,-0.01 -0.11,-0.01 -0.17,-0.02c-0.05,0 -0.1,0 -0.16,0c-0.05,0.01 -0.1,0.02 -0.15,0.04c-0.06,0.03 -0.12,0.07 -0.16,0.11c-0.03,0.04 -0.06,0.1 -0.08,0.18c0,0.02 0,0.04 0,0.07c0,0.03 0.01,0.05 0.02,0.06c0.02,0.06 0.06,0.11 0.1,0.13c0.04,0.03 0.1,0.05 0.15,0.08c0.03,0.01 0.07,0.03 0.1,0.03c0.04,0.01 0.07,0.02 0.11,0.03c0.08,0.02 0.16,0.05 0.25,0.07c0.08,0.01 0.17,0.04 0.25,0.06c0.01,0.01 0.03,0.01 0.05,0.01c0.01,0 0.02,0 0.04,0.01c0.06,0.02 0.12,0.04 0.19,0.06c0.06,0.02 0.12,0.05 0.17,0.08c0.08,0.05 0.15,0.1 0.21,0.15c0.06,0.05 0.11,0.12 0.17,0.2c0.01,0.02 0.02,0.04 0.03,0.08c0.01,0.02 0.02,0.06 0.04,0.09c0,0.01 0,0.01 0,0.02c0,0.01 0,0.02 0,0.03c0.01,0.04 0.01,0.1 0.01,0.18c0.01,0.01 0.01,0.03 0,0.04l0,0.08c0,0.03 -0.01,0.07 -0.01,0.09c0,0.04 -0.02,0.06 -0.03,0.09c-0.01,0.06 -0.03,0.11 -0.05,0.15c-0.02,0.05 -0.05,0.09 -0.08,0.13c-0.01,0.02 -0.02,0.03 -0.03,0.04c-0.01,0.01 -0.02,0.02 -0.03,0.04c-0.02,0.02 -0.04,0.04 -0.05,0.05c-0.02,0.02 -0.04,0.03 -0.06,0.05c-0.02,0.01 -0.03,0.02 -0.05,0.04c-0.02,0.01 -0.03,0.02 -0.05,0.04c-0.05,0.03 -0.11,0.05 -0.16,0.08c-0.05,0.02 -0.11,0.04 -0.17,0.06c-0.04,0.02 -0.09,0.02 -0.13,0.03c-0.05,0 -0.09,0.01 -0.13,0.02c-0.03,0 -0.04,0.01 -0.06,0c-0.03,0 -0.05,0 -0.06,0.01l-0.04,0c0,0 -0.02,0 -0.03,0c-0.01,0 -0.02,0 -0.02,0c-0.02,0 -0.04,0 -0.08,0c-0.04,0 -0.06,0 -0.07,0l-0.05,0c0,0 -0.04,-0.01 -0.07,-0.01c-0.02,0 -0.04,0 -0.05,0c-0.02,0 -0.03,0 -0.04,0c-0.01,0 -0.03,0 -0.04,-0.01c-0.04,-0.01 -0.07,-0.01 -0.11,-0.02c-0.04,0 -0.08,-0.01 -0.11,-0.03c-0.15,-0.04 -0.27,-0.1 -0.39,-0.18c-0.1,-0.07 -0.2,-0.17 -0.27,-0.29c-0.05,-0.07 -0.09,-0.15 -0.11,-0.25c-0.01,-0.02 -0.01,-0.04 -0.01,-0.06c0,-0.01 -0.01,-0.04 -0.01,-0.06c-0.01,-0.02 -0.02,-0.05 -0.02,-0.08c0,-0.04 0,-0.06 0.02,-0.08c0.02,-0.03 0.04,-0.04 0.06,-0.04c0.03,0 0.06,-0.01 0.1,-0.01l0.36,0c0.03,0 0.05,0 0.07,0.01c0.03,0.02 0.05,0.04 0.06,0.08c0.01,0.03 0.02,0.07 0.03,0.11c0.01,0.03 0.03,0.07 0.05,0.09c0.02,0.03 0.03,0.06 0.05,0.09c0.02,0.01 0.04,0.03 0.05,0.05c0.02,0.01 0.04,0.02 0.06,0.03c0.06,0.05 0.14,0.08 0.24,0.11c0.02,0 0.04,0.01 0.06,0.01c0.02,0 0.04,0 0.06,0.01l0.02,0c0,0 0.06,0.01 0.1,0.01c0.04,0 0.07,0 0.1,-0.01c0.01,0 0.02,0 0.04,0c0.02,0 0.03,0 0.05,0c0.01,0 0.03,-0.01 0.05,-0.01c0.1,-0.03 0.18,-0.07 0.24,-0.11c0.06,-0.04 0.1,-0.12 0.13,-0.23c0,-0.02 0,-0.04 0,-0.07c0,-0.02 -0.01,-0.04 -0.02,-0.06c-0.03,-0.08 -0.08,-0.14 -0.15,-0.19c-0.01,0 -0.03,-0.01 -0.05,-0.02c-0.04,-0.03 -0.09,-0.05 -0.15,-0.07c-0.05,-0.01 -0.11,-0.03 -0.17,-0.05c-0.02,0 -0.03,-0.01 -0.05,-0.01c-0.03,0 -0.05,-0.01 -0.07,-0.02c-0.05,-0.02 -0.1,-0.03 -0.14,-0.04c-0.05,-0.01 -0.1,-0.02 -0.14,-0.03c-0.02,-0.01 -0.03,-0.01 -0.04,-0.01c-0.01,0 -0.02,0 -0.03,-0.02c-0.03,0 -0.05,-0.01 -0.07,-0.01c-0.02,0 -0.04,-0.01 -0.06,-0.02c-0.07,-0.02 -0.14,-0.05 -0.2,-0.07c-0.06,-0.03 -0.12,-0.06 -0.18,-0.09c-0.07,-0.04 -0.13,-0.1 -0.18,-0.15c-0.06,-0.06 -0.11,-0.13 -0.14,-0.21c-0.01,-0.02 -0.02,-0.05 -0.03,-0.08c0,-0.03 -0.01,-0.06 -0.02,-0.1c0,-0.02 -0.01,-0.06 -0.01,-0.11c0,-0.05 0,-0.09 0,-0.12c0,-0.01 0,-0.03 0,-0.05c0.01,-0.04 0.02,-0.07 0.02,-0.1c0.01,-0.03 0.02,-0.06 0.03,-0.09c0.04,-0.1 0.1,-0.19 0.17,-0.27c0.07,-0.07 0.15,-0.13 0.25,-0.19c0.06,-0.04 0.12,-0.07 0.19,-0.09c0.07,-0.02 0.14,-0.04 0.22,-0.06c0.03,0 0.06,-0.01 0.09,-0.01c0.03,0 0.06,0 0.08,-0.01c0.01,0 0.02,0 0.05,0c0.02,0 0.03,0 0.03,0l0.03,-0.04z" fill="#ffffff" id="svg_25"/>
   <path d="m123.48,39.1l2.07,0c0.04,0 0.07,0 0.1,0c0.03,0 0.06,0.01 0.07,0.03c0,0.01 0.02,0.03 0.02,0.04c0,0.01 0,0.02 0.01,0.03l0,0.05c0,0 0,0.05 0,0.07c0,0.02 0,0.04 0,0.06c0,0.03 0,0.05 0,0.07c0,0.02 0,0.04 0,0.07c0,0.01 0,0.03 0,0.06c-0.01,0.04 -0.03,0.06 -0.05,0.07c-0.02,0.02 -0.04,0.02 -0.07,0.02l-1.2,0c0,0 -0.06,0 -0.09,0c-0.03,0 -0.06,0 -0.09,0c-0.04,0 -0.06,0 -0.09,0.01c-0.03,0 -0.05,0.01 -0.06,0.02c-0.02,0.02 -0.03,0.04 -0.04,0.07c0,0.02 -0.01,0.06 -0.01,0.09l0,0.39c0,0 0.01,0.04 0.02,0.06c0.01,0.02 0.02,0.03 0.04,0.04c0.01,0.01 0.03,0.02 0.06,0.02c0.02,0 0.05,0 0.08,0l1.01,0c0,0 0.05,0 0.08,0l0.09,0c0.03,0 0.06,0 0.09,0c0.02,0 0.04,0.01 0.06,0.02c0.01,0 0.02,0.03 0.03,0.05c0,0.03 0.01,0.06 0.01,0.09c0,0.03 0,0.06 0,0.1c0,0.03 0,0.06 0,0.08l0,0.07c0,0 0,0.04 -0.01,0.05c-0.01,0.02 -0.02,0.04 -0.04,0.06c-0.02,0.01 -0.04,0.01 -0.06,0.02c-0.03,0 -0.05,0 -0.09,0c-0.03,0 -0.06,0 -0.09,0c-0.03,0 -0.06,0 -0.08,0l-0.87,0c-0.04,0 -0.07,0 -0.1,0c-0.03,0 -0.07,0 -0.09,0c-0.03,0 -0.06,0.01 -0.07,0.03c-0.03,0.01 -0.04,0.03 -0.05,0.06c0,0.01 0,0.02 0,0.04l0,0.47c0,0.04 0,0.07 0.01,0.1c0,0.02 0.02,0.05 0.04,0.06c0.01,0.01 0.02,0.01 0.03,0.02c0.01,0 0.03,0 0.05,0.01l0.04,0c0,0 0.03,0 0.05,0c0.01,0 0.03,0 0.05,0l1.34,0c0,0 0.04,0 0.06,0.01c0.02,0.02 0.04,0.03 0.04,0.05c0.01,0.02 0.02,0.04 0.02,0.06c0,0.02 0,0.04 0,0.07l0,0.2c0,0.04 0,0.07 0,0.1c0,0.03 -0.02,0.06 -0.05,0.07c-0.01,0.02 -0.04,0.02 -0.07,0.02l-2.11,0c-0.04,0 -0.08,0 -0.1,0c-0.03,0 -0.06,-0.02 -0.07,-0.04c-0.01,-0.03 -0.02,-0.05 -0.02,-0.07l0,-2.97c0,-0.02 0.01,-0.04 0.02,-0.06c0.01,-0.02 0.04,-0.04 0.07,-0.05c0,0 0.01,0 0.01,0c0.01,0 0.01,0 0.02,0l-0.02,0.01zm1.22,-0.93l0.4,0c0.04,0 0.06,0 0.07,0.01c0.01,0 0.01,0 0.01,0.01c0,0.01 0.01,0.01 0.01,0.01c0,0.04 -0.01,0.07 -0.04,0.09c-0.03,0.03 -0.05,0.05 -0.07,0.07c-0.03,0.02 -0.05,0.04 -0.07,0.07c-0.03,0.02 -0.05,0.04 -0.07,0.05c-0.01,0.01 -0.02,0.03 -0.03,0.03c0,0.01 -0.02,0.02 -0.03,0.02c0,0.01 -0.01,0.02 -0.02,0.02c-0.01,0.02 -0.03,0.03 -0.04,0.05c-0.02,0.01 -0.03,0.02 -0.05,0.04c0,0 -0.01,0.01 -0.01,0.01c0,0 -0.01,0.01 -0.01,0.01c-0.03,0.02 -0.05,0.04 -0.07,0.06c-0.02,0.02 -0.05,0.04 -0.08,0.05c-0.01,0 -0.02,0 -0.03,0c-0.01,0 -0.02,0 -0.04,0c-0.01,0 -0.02,0 -0.04,0c-0.02,0 -0.02,0 -0.04,0l-0.1,0c-0.04,0 -0.07,-0.01 -0.08,-0.02c-0.02,-0.01 -0.02,-0.03 -0.02,-0.07c0,-0.02 0.02,-0.04 0.03,-0.06c0.02,-0.02 0.03,-0.04 0.04,-0.06c0.03,-0.04 0.06,-0.08 0.09,-0.12c0.02,-0.04 0.05,-0.08 0.08,-0.12c0.01,-0.02 0.03,-0.05 0.04,-0.08c0.02,-0.02 0.04,-0.04 0.06,-0.06c0.01,-0.01 0.04,-0.02 0.07,-0.03c0,0 0.01,0 0.02,0c0.01,0 0.02,0 0.03,0l-0.01,0.02z" fill="#ffffff" id="svg_26"/>
   <path d="m128.25,39.03c0.58,-0.01 0.97,0.16 1.19,0.52c0.04,0.05 0.06,0.09 0.07,0.14c0.02,0.06 0.03,0.11 0.05,0.17c0.01,0.02 0.01,0.05 0.01,0.08c0,0.03 -0.01,0.05 -0.02,0.07c-0.02,0.02 -0.04,0.03 -0.06,0.03c-0.03,0 -0.06,0.01 -0.09,0.01l-0.37,0c-0.03,0 -0.05,0 -0.07,-0.01c-0.04,-0.02 -0.06,-0.04 -0.06,-0.07c-0.01,-0.03 -0.02,-0.06 -0.04,-0.1c-0.01,-0.02 -0.03,-0.05 -0.05,-0.09c-0.02,-0.03 -0.04,-0.06 -0.06,-0.08c-0.05,-0.03 -0.08,-0.06 -0.12,-0.08c-0.04,-0.01 -0.08,-0.02 -0.14,-0.04c-0.05,-0.01 -0.1,-0.01 -0.16,-0.02c-0.06,0 -0.11,0 -0.16,0c-0.05,0.01 -0.1,0.02 -0.14,0.04c-0.07,0.03 -0.13,0.07 -0.16,0.11c-0.04,0.04 -0.07,0.1 -0.08,0.18c0,0.02 -0.01,0.04 0,0.07c0,0.03 0.01,0.05 0.01,0.06c0.02,0.06 0.06,0.11 0.1,0.13c0.05,0.03 0.1,0.05 0.16,0.08c0.03,0.01 0.06,0.03 0.1,0.03c0.03,0.01 0.07,0.02 0.11,0.03c0.08,0.02 0.16,0.05 0.24,0.07c0.09,0.01 0.18,0.04 0.26,0.06c0.01,0.01 0.03,0.01 0.04,0.01c0.01,0 0.03,0 0.04,0.01c0.06,0.02 0.13,0.04 0.19,0.06c0.07,0.02 0.12,0.05 0.17,0.08c0.08,0.05 0.15,0.1 0.21,0.15c0.06,0.05 0.11,0.12 0.16,0.2c0.02,0.02 0.03,0.04 0.04,0.08c0.01,0.02 0.02,0.06 0.03,0.09c0,0.01 0,0.01 0,0.02c0,0.01 0,0.02 0,0.03c0.01,0.04 0.02,0.1 0.02,0.18c0.01,0.01 0.01,0.03 0,0.04l0,0.08c0,0.03 -0.01,0.07 -0.01,0.09c0,0.04 -0.01,0.06 -0.02,0.09c-0.02,0.06 -0.04,0.11 -0.06,0.15c-0.02,0.05 -0.05,0.09 -0.08,0.13c-0.01,0.02 -0.02,0.03 -0.03,0.04c-0.02,0.01 -0.03,0.02 -0.04,0.04c-0.01,0.02 -0.03,0.04 -0.05,0.05c-0.01,0.02 -0.03,0.03 -0.05,0.05c-0.02,0.01 -0.03,0.02 -0.05,0.04c-0.01,0.01 -0.03,0.02 -0.05,0.04c-0.05,0.03 -0.1,0.05 -0.16,0.08c-0.06,0.02 -0.11,0.04 -0.17,0.06c-0.05,0.02 -0.09,0.02 -0.13,0.03c-0.05,0 -0.09,0.01 -0.14,0.02c-0.02,0 -0.04,0.01 -0.06,0c-0.02,0 -0.03,0 -0.06,0.01l-0.03,0c0,0 -0.01,0 -0.02,0c-0.01,0 -0.02,0 -0.03,0c-0.02,0 -0.04,0 -0.08,0c-0.04,0 -0.06,0 -0.08,0l-0.04,0c0,0 -0.04,-0.01 -0.06,-0.01c-0.02,0 -0.05,0 -0.06,0c-0.02,0 -0.03,0 -0.04,0c-0.01,0 -0.03,0 -0.04,-0.01c-0.04,-0.01 -0.08,-0.01 -0.12,-0.02c-0.04,0 -0.07,-0.01 -0.1,-0.03c-0.15,-0.04 -0.28,-0.1 -0.39,-0.18c-0.11,-0.07 -0.2,-0.17 -0.28,-0.29c-0.05,-0.07 -0.08,-0.15 -0.11,-0.25c-0.01,-0.02 -0.01,-0.04 -0.01,-0.06c0,-0.01 0,-0.04 -0.01,-0.06c-0.01,-0.02 -0.01,-0.05 -0.01,-0.08c0,-0.04 0,-0.06 0.01,-0.08c0.02,-0.03 0.04,-0.04 0.07,-0.04c0.02,0 0.06,-0.01 0.09,-0.01l0.36,0c0,0 0.05,0 0.07,0.01c0.04,0.02 0.06,0.04 0.06,0.08c0.01,0.03 0.02,0.07 0.03,0.11c0.01,0.03 0.03,0.07 0.05,0.09c0.02,0.03 0.04,0.06 0.06,0.09c0.02,0.01 0.03,0.03 0.05,0.05c0.02,0.01 0.04,0.02 0.05,0.03c0.07,0.05 0.15,0.08 0.25,0.11c0.02,0 0.04,0.01 0.05,0.01c0.02,0 0.04,0 0.07,0.01l0.02,0c0,0 0.06,0.01 0.1,0.01c0.03,0 0.07,0 0.09,-0.01c0.01,0 0.02,0 0.05,0c0.01,0 0.03,0 0.04,0c0.02,0 0.04,-0.01 0.05,-0.01c0.1,-0.03 0.19,-0.07 0.24,-0.11c0.06,-0.04 0.11,-0.12 0.13,-0.23c0,-0.02 0,-0.04 0,-0.07c0,-0.02 -0.01,-0.04 -0.02,-0.06c-0.03,-0.08 -0.08,-0.14 -0.15,-0.19c-0.01,0 -0.03,-0.01 -0.05,-0.02c-0.05,-0.03 -0.1,-0.05 -0.15,-0.07c-0.06,-0.01 -0.11,-0.03 -0.16,-0.05c-0.02,0 -0.05,-0.01 -0.06,-0.01c-0.02,0 -0.05,-0.01 -0.07,-0.02c-0.05,-0.02 -0.09,-0.03 -0.14,-0.04c-0.05,-0.01 -0.1,-0.02 -0.15,-0.03c-0.01,-0.01 -0.02,-0.01 -0.03,-0.01c-0.01,0 -0.03,0 -0.04,-0.02c-0.02,0 -0.05,-0.01 -0.06,-0.01c-0.02,0 -0.04,-0.01 -0.07,-0.02c-0.06,-0.02 -0.13,-0.05 -0.19,-0.07c-0.07,-0.03 -0.13,-0.06 -0.18,-0.09c-0.06,-0.04 -0.13,-0.1 -0.18,-0.15c-0.06,-0.06 -0.1,-0.13 -0.14,-0.21c-0.01,-0.02 -0.02,-0.05 -0.02,-0.08c-0.01,-0.03 -0.02,-0.06 -0.03,-0.1c0,-0.02 -0.01,-0.06 -0.01,-0.11c0,-0.05 0,-0.09 0,-0.12c0,-0.01 0,-0.03 0,-0.05c0.01,-0.04 0.02,-0.07 0.02,-0.1c0.01,-0.03 0.02,-0.06 0.03,-0.09c0.05,-0.1 0.1,-0.19 0.17,-0.27c0.07,-0.07 0.15,-0.13 0.25,-0.19c0.05,-0.04 0.12,-0.07 0.19,-0.09c0.07,-0.02 0.14,-0.04 0.22,-0.06c0.03,0 0.06,-0.01 0.08,-0.01c0.03,0 0.06,0 0.1,-0.01c0.01,0 0.02,0 0.04,0c0.02,0 0.03,0 0.04,0l0.02,-0.04z" fill="#ffffff" id="svg_27"/>
   <path d="m135.57,39.49c0.07,0.1 0.12,0.21 0.15,0.32c0.03,0.12 0.04,0.26 0.03,0.42c0,0.07 -0.01,0.13 -0.03,0.19c-0.01,0.05 -0.03,0.1 -0.05,0.15c-0.01,0.01 -0.01,0.03 -0.02,0.04c0,0.01 -0.01,0.02 -0.01,0.03c-0.01,0.02 -0.02,0.04 -0.04,0.06c-0.01,0.02 -0.02,0.04 -0.03,0.06c-0.06,0.09 -0.14,0.15 -0.22,0.2c-0.08,0.06 -0.18,0.1 -0.29,0.14c-0.03,0.01 -0.06,0.02 -0.1,0.02c-0.04,0 -0.08,0 -0.11,0.02c-0.01,0 -0.04,0 -0.05,0c-0.02,0 -0.04,0 -0.05,0l-0.69,0c-0.04,0 -0.07,0.01 -0.1,0.03c-0.02,0.02 -0.04,0.06 -0.04,0.1l0,0.75c0,0.04 0,0.08 0,0.12c0,0.04 -0.01,0.07 -0.02,0.1c-0.01,0.02 -0.04,0.03 -0.08,0.04c-0.02,0.01 -0.05,0.01 -0.07,0c-0.02,0 -0.04,0 -0.07,0l-0.25,0c-0.04,0 -0.07,0 -0.1,0c-0.02,0 -0.04,0 -0.07,-0.02c-0.01,-0.02 -0.02,-0.04 -0.03,-0.07c0,-0.04 0,-0.07 0,-0.1l0,-2.68c0,-0.04 0,-0.09 0,-0.15c0,-0.06 0.01,-0.09 0.02,-0.11c0.01,-0.03 0.04,-0.04 0.07,-0.05c0.01,0 0.01,0 0.02,0c0.02,0 0.02,0 0.03,0l1.29,0c0.03,0 0.05,0 0.08,0c0.03,0 0.05,0 0.07,0l0.03,0c0,0 0.03,0.01 0.04,0.01c0.02,0 0.04,0 0.05,0.01c0.02,0 0.04,0 0.05,0c0.01,0 0.02,0 0.03,0.01c0.05,0.02 0.1,0.03 0.15,0.04c0.05,0.01 0.09,0.03 0.13,0.06c0.02,0.01 0.03,0.02 0.05,0.03c0.02,0.01 0.04,0.02 0.06,0.04c0.01,0.01 0.02,0.02 0.03,0.02c0.01,0.01 0.02,0.02 0.04,0.03l0.03,0.03c0.03,0.04 0.06,0.07 0.09,0.11l-0.02,0zm-0.49,0.74c0,-0.03 0,-0.08 0,-0.12c0,-0.05 0,-0.1 -0.01,-0.13c-0.02,-0.06 -0.04,-0.12 -0.07,-0.15c-0.02,-0.04 -0.07,-0.08 -0.12,-0.11c-0.04,-0.03 -0.1,-0.05 -0.17,-0.06c-0.06,-0.01 -0.13,-0.02 -0.21,-0.02c-0.07,0 -0.15,0 -0.23,0c-0.08,0 -0.16,0 -0.23,0c-0.01,0 -0.02,0 -0.02,0c-0.01,0 -0.02,0 -0.03,0c-0.03,0.01 -0.05,0.03 -0.06,0.06c-0.01,0.02 -0.02,0.05 -0.02,0.09l0,0.66c0,0.04 0.01,0.07 0.03,0.1c0.01,0.02 0.02,0.03 0.05,0.04c0.02,0.01 0.05,0.01 0.08,0.01l0.1,0c0.03,0 0.06,0 0.09,0c0.16,0 0.31,0 0.44,-0.02c0.13,-0.01 0.23,-0.06 0.3,-0.15c0.01,-0.03 0.03,-0.06 0.04,-0.09c0.01,-0.03 0.03,-0.06 0.04,-0.1l0,-0.01z" fill="#ffffff" id="svg_28"/>
   <path d="m140.14,40.58c0,0 0.01,0.05 0.01,0.09c0,0.05 0,0.08 -0.01,0.1l0,0.05c0,0.03 -0.01,0.06 -0.01,0.1c0,0.03 0,0.06 -0.01,0.09c0,0.02 -0.01,0.04 -0.01,0.07c0,0.02 -0.01,0.04 -0.02,0.06c-0.01,0.05 -0.02,0.11 -0.04,0.16c-0.01,0.04 -0.02,0.1 -0.05,0.15c-0.09,0.21 -0.21,0.38 -0.36,0.52c-0.15,0.14 -0.34,0.24 -0.56,0.31c-0.04,0.01 -0.07,0.03 -0.1,0.03c-0.03,0.01 -0.07,0.01 -0.1,0.02c-0.01,0 -0.03,0.01 -0.05,0.01c-0.01,0 -0.03,0 -0.04,0l-0.15,0.01c0,0 -0.03,0 -0.06,0c-0.04,0 -0.05,0 -0.06,-0.01c-0.02,0 -0.03,0 -0.05,0c-0.01,0 -0.02,0 -0.04,0l-0.05,0c0,0 -0.04,-0.01 -0.06,-0.01c-0.02,0 -0.04,0 -0.07,-0.01c-0.03,0 -0.05,-0.01 -0.08,-0.01c-0.02,0 -0.04,-0.02 -0.07,-0.02c-0.03,-0.01 -0.06,-0.03 -0.1,-0.04c-0.03,-0.01 -0.06,-0.03 -0.1,-0.04c-0.18,-0.08 -0.33,-0.18 -0.46,-0.31c-0.12,-0.13 -0.22,-0.29 -0.3,-0.46c-0.02,-0.05 -0.03,-0.09 -0.04,-0.14c-0.01,-0.05 -0.03,-0.09 -0.04,-0.14c-0.01,-0.01 -0.01,-0.02 -0.01,-0.04c0,-0.01 0,-0.02 0,-0.03c-0.01,-0.02 -0.01,-0.04 -0.02,-0.06c0,-0.02 0,-0.05 -0.01,-0.07c0,-0.02 0,-0.03 0,-0.04c0,-0.02 0,-0.03 -0.01,-0.04c0,-0.02 0,-0.04 0,-0.06c0,-0.02 0,-0.03 0,-0.05c0,-0.02 -0.01,-0.04 -0.01,-0.07c0,-0.04 0,-0.06 0.01,-0.07c0,-0.02 0,-0.03 0,-0.05c0,-0.01 0,-0.02 0,-0.04l0,-0.03c0,0 0.01,-0.03 0.01,-0.06c0,-0.02 0,-0.03 0.01,-0.05c0,-0.02 0,-0.03 0,-0.05c0,-0.01 0,-0.03 0.01,-0.05c0.02,-0.05 0.03,-0.1 0.04,-0.15c0.01,-0.04 0.02,-0.09 0.04,-0.14c0.02,-0.05 0.05,-0.1 0.06,-0.15c0.02,-0.05 0.05,-0.1 0.08,-0.15c0.09,-0.14 0.19,-0.26 0.31,-0.36c0.12,-0.09 0.26,-0.17 0.42,-0.24c0.04,-0.02 0.08,-0.03 0.13,-0.04c0.04,-0.01 0.08,-0.02 0.12,-0.03c0.02,-0.01 0.03,-0.01 0.05,-0.01c0.01,0 0.02,0 0.04,0l0.13,-0.01c0,0 0.02,0 0.03,0c0.01,0 0.02,0 0.03,0c0.21,-0.01 0.39,0.01 0.55,0.06c0.16,0.05 0.3,0.12 0.42,0.2c0.04,0.03 0.07,0.06 0.12,0.1c0.04,0.03 0.07,0.07 0.1,0.1c0.01,0.01 0.03,0.03 0.05,0.05c0.01,0.01 0.02,0.03 0.03,0.04c0.04,0.05 0.07,0.1 0.1,0.15c0.03,0.05 0.06,0.1 0.09,0.16c0.01,0.04 0.03,0.08 0.05,0.12c0.01,0.04 0.02,0.08 0.04,0.12c0.01,0.03 0.01,0.06 0.02,0.09c0,0.03 0.02,0.07 0.02,0.1c0.01,0.02 0.01,0.04 0.01,0.06c0,0.01 0,0.04 0.01,0.05c0.01,0.02 0.01,0.04 0.01,0.06c0,0.02 0,0.03 0,0.05l0,0.04l0,0.01zm-0.7,0.19c0,0 0.01,-0.04 0.01,-0.06c0,-0.04 0,-0.05 -0.01,-0.07l0,-0.07c0,0 0,-0.02 0,-0.04c0,-0.01 0,-0.02 0,-0.03c-0.01,-0.02 -0.01,-0.05 -0.01,-0.07c0,-0.02 -0.01,-0.04 -0.02,-0.06c0,-0.02 0,-0.03 -0.01,-0.05c-0.01,-0.03 -0.01,-0.06 -0.02,-0.1c-0.01,-0.03 -0.03,-0.06 -0.04,-0.09c-0.07,-0.16 -0.16,-0.28 -0.29,-0.37c-0.12,-0.1 -0.29,-0.14 -0.52,-0.14c0,0 -0.01,0 -0.02,0c-0.01,0 -0.01,0 -0.02,0c-0.01,0 -0.02,0 -0.04,0c-0.01,0 -0.02,0 -0.03,0c-0.04,0.01 -0.07,0.01 -0.1,0.02c-0.03,0.01 -0.06,0.02 -0.09,0.03c-0.12,0.05 -0.22,0.13 -0.29,0.23c-0.08,0.09 -0.14,0.21 -0.18,0.34c-0.01,0.03 -0.01,0.06 -0.02,0.1c0,0.03 -0.01,0.06 -0.02,0.09c0,0.01 0,0.02 0,0.03c0,0.02 0,0.03 0,0.04c-0.01,0.01 -0.01,0.03 0,0.05c0,0.01 0,0.03 0,0.04c-0.01,0.02 -0.01,0.05 -0.01,0.09c0,0.04 0,0.06 0,0.08l0,0.05c0,0 0,0.03 0,0.04c0,0.01 0,0.02 0,0.03c0,0.01 0,0.02 0,0.04c0,0.01 0,0.02 0,0.03c0.01,0.03 0.02,0.06 0.03,0.09c0,0.04 0.01,0.07 0.02,0.1c0.03,0.1 0.08,0.18 0.12,0.27c0.05,0.08 0.11,0.15 0.18,0.2c0.02,0.02 0.03,0.03 0.05,0.04c0.02,0.01 0.03,0.02 0.05,0.03c0.04,0.02 0.07,0.03 0.11,0.05c0.04,0.01 0.08,0.02 0.12,0.03c0.02,0.01 0.03,0.01 0.04,0.01c0.01,0 0.03,0 0.04,0c0.02,0 0.04,0.01 0.06,0.01l0.1,0c0,0 0.02,0 0.03,0c0.01,0 0.03,0 0.04,-0.01c0.03,0 0.06,-0.01 0.09,-0.02c0.03,0 0.06,-0.01 0.09,-0.02c0.13,-0.05 0.23,-0.12 0.3,-0.2c0.07,-0.08 0.13,-0.19 0.19,-0.32c0.01,-0.03 0.02,-0.06 0.03,-0.11c0,-0.03 0.01,-0.07 0.03,-0.11l0.01,-0.11c0,0 0,-0.02 0,-0.04l0,-0.07l0,0z" fill="#ffffff" id="svg_29"/>
   <path d="m141.67,39.09l0.38,0c0.03,0 0.06,0 0.09,0c0.04,0 0.06,0.02 0.07,0.03c0.02,0.03 0.03,0.06 0.03,0.09c0,0.04 0,0.08 0,0.12l0,1.53c0,0 0,0.02 0,0.04c0,0.01 0,0.03 0,0.04l0,0.07c0,0.02 0,0.05 0,0.08c0,0.03 0,0.06 0.01,0.08c0,0.02 0,0.04 0,0.05c0,0.03 0.01,0.07 0.01,0.1c0,0.03 0.01,0.06 0.03,0.09c0.03,0.08 0.07,0.15 0.12,0.2c0.06,0.05 0.12,0.09 0.21,0.12c0.02,0 0.05,0.01 0.07,0.01c0.02,0 0.05,0.01 0.07,0.01c0.02,0.01 0.03,0.01 0.04,0.01c0.01,0 0.03,0 0.04,0c0.01,0 0.03,0 0.06,0c0.03,0 0.04,0 0.05,-0.01l0.07,0c0,0 0.05,-0.01 0.07,-0.01c0.02,0 0.05,-0.01 0.07,-0.01c0.04,-0.01 0.07,-0.02 0.09,-0.03c0.06,-0.03 0.11,-0.06 0.14,-0.1c0.04,-0.04 0.07,-0.08 0.1,-0.14c0.03,-0.07 0.05,-0.16 0.06,-0.27c0,-0.11 0.01,-0.22 0.01,-0.33l0,-1.49c0,-0.04 0,-0.09 0,-0.14c0,-0.05 0,-0.09 0.03,-0.11c0.01,-0.02 0.03,-0.03 0.06,-0.03c0.03,0 0.06,-0.01 0.09,-0.01l0.29,0c0,0 0.04,0 0.07,0c0.02,0 0.04,0 0.06,0.01c0.04,0 0.07,0.02 0.08,0.04c0.02,0.03 0.02,0.06 0.02,0.11c0,0.04 0,0.08 0,0.11l0,1.51c0,0.11 0,0.22 0,0.33c0,0.11 -0.01,0.21 -0.04,0.29c-0.04,0.14 -0.09,0.27 -0.16,0.37c-0.06,0.1 -0.15,0.19 -0.25,0.26c-0.09,0.07 -0.2,0.12 -0.32,0.16c-0.03,0.01 -0.06,0.02 -0.09,0.02c-0.02,0.01 -0.06,0.01 -0.08,0.02c-0.02,0.01 -0.04,0.01 -0.05,0.01c-0.02,0 -0.04,0 -0.05,0.01c-0.04,0.01 -0.08,0.01 -0.13,0.01c-0.04,0 -0.08,0 -0.13,0c-0.28,0 -0.52,-0.03 -0.72,-0.1c-0.2,-0.08 -0.35,-0.2 -0.47,-0.36c-0.04,-0.05 -0.07,-0.11 -0.1,-0.17c-0.03,-0.05 -0.05,-0.12 -0.07,-0.18c0,-0.02 -0.01,-0.03 -0.01,-0.04c0,-0.01 0,-0.02 0,-0.04c-0.03,-0.08 -0.04,-0.18 -0.04,-0.28l0,-1.97c0,-0.03 0,-0.05 0.01,-0.07c0.02,-0.02 0.04,-0.03 0.07,-0.04l0.02,0c0,0 0.01,0 0.02,0l0,0z" fill="#ffffff" id="svg_30"/>
   <path d="m148.5,42.19c0,0 0.01,0.03 0,0.05c0,0.01 -0.02,0.02 -0.02,0.03c-0.02,0.01 -0.04,0.02 -0.08,0.01c-0.03,0 -0.06,0 -0.09,0l-0.25,0c-0.05,0 -0.09,0 -0.12,0c-0.04,0 -0.07,-0.02 -0.08,-0.06c-0.02,-0.03 -0.04,-0.08 -0.04,-0.14c0,-0.06 -0.01,-0.11 -0.02,-0.16c0,-0.01 0,-0.02 0,-0.03c0,-0.01 0,-0.02 0,-0.03c-0.01,-0.04 -0.01,-0.08 -0.01,-0.11c0,-0.05 0,-0.08 -0.01,-0.12c0,0 0,-0.02 0,-0.03c-0.01,-0.04 -0.02,-0.07 -0.02,-0.11c0,-0.03 -0.01,-0.06 -0.02,-0.1c-0.02,-0.07 -0.05,-0.13 -0.09,-0.18c-0.03,-0.05 -0.08,-0.1 -0.14,-0.12c-0.01,0 -0.03,-0.01 -0.04,-0.01c-0.02,0 -0.04,-0.01 -0.05,-0.01c-0.06,-0.03 -0.12,-0.03 -0.19,-0.03l-0.57,0c0,0 -0.05,0.01 -0.07,0.01c-0.02,0 -0.03,0.01 -0.04,0.03c-0.02,0.03 -0.04,0.07 -0.04,0.14c0,0.06 0,0.11 0,0.17l0,0.57c0,0 0,0.05 0,0.08c0,0.02 0,0.05 0,0.07l0,0.07c0,0 0,0.03 0,0.04c-0.01,0.03 -0.03,0.05 -0.05,0.06c-0.02,0 -0.04,0.01 -0.06,0.01l-0.27,0c-0.04,0 -0.09,0 -0.15,0c-0.05,0 -0.09,-0.01 -0.12,-0.03c-0.03,-0.01 -0.04,-0.04 -0.04,-0.08l0,-2.84c0,-0.03 0,-0.07 0,-0.1c0,-0.04 0,-0.07 0.02,-0.09c0.01,-0.02 0.04,-0.03 0.07,-0.05c0,0 0.01,0 0.02,0c0.01,0 0.02,0 0.02,0l1.53,0c0.04,0 0.09,0 0.14,0c0.04,0 0.08,0.01 0.12,0.02c0.01,0 0.03,0.01 0.05,0.01c0.01,0 0.03,0 0.05,0c0.02,0.01 0.04,0.02 0.06,0.03c0.02,0 0.04,0.01 0.06,0.02c0.08,0.03 0.15,0.07 0.21,0.12c0.06,0.05 0.12,0.1 0.15,0.17c0.01,0.01 0.02,0.03 0.03,0.05c0.01,0.01 0.02,0.03 0.03,0.04c0.02,0.05 0.04,0.09 0.05,0.13c0.01,0.05 0.03,0.09 0.04,0.15c0,0.01 0,0.02 0,0.04c0,0.01 0,0.02 0,0.04l0,0.04c0,0 0.01,0.05 0,0.08c0,0.03 0,0.06 -0.01,0.08c0,0.03 0,0.05 0,0.07c0,0.02 0,0.04 -0.01,0.05c-0.02,0.05 -0.03,0.09 -0.05,0.13c-0.01,0.05 -0.03,0.08 -0.06,0.12c0,0.01 -0.01,0.02 -0.02,0.03c-0.01,0.01 -0.01,0.01 -0.02,0.03c-0.01,0.01 -0.02,0.02 -0.02,0.03c-0.02,0.01 -0.03,0.02 -0.04,0.04c-0.02,0.01 -0.03,0.02 -0.05,0.04c-0.02,0.01 -0.04,0.03 -0.06,0.04c-0.01,0.01 -0.02,0.02 -0.04,0.03c-0.01,0.01 -0.02,0.02 -0.02,0.04c-0.01,0.02 0,0.03 0.01,0.05c0.01,0.01 0.02,0.02 0.03,0.03c0.03,0.02 0.06,0.04 0.08,0.07c0.04,0.02 0.06,0.05 0.08,0.08c0.04,0.05 0.06,0.1 0.09,0.16c0.02,0.05 0.04,0.11 0.05,0.18c0.01,0.03 0.02,0.05 0.02,0.09c0,0.02 0,0.05 0.01,0.08c0,0.02 0,0.04 0,0.05c0,0.02 0,0.04 0,0.05c0,0.01 0,0.03 0,0.04c0,0.01 0,0.03 0,0.04c0,0.01 0,0.02 0,0.04c0,0.01 0,0.03 0,0.04c0,0.03 0.01,0.06 0.01,0.09c0,0.03 0,0.06 0,0.1l0.01,0.08c0,0 0.01,0.05 0.02,0.08c0.01,0.02 0.02,0.05 0.02,0.07l0,0zm-0.74,-2.03c0.01,-0.03 0.01,-0.07 0,-0.12c0,-0.05 -0.01,-0.08 -0.01,-0.11c-0.01,-0.01 -0.01,-0.02 -0.01,-0.03c0,-0.01 0,-0.01 -0.01,-0.03c-0.04,-0.09 -0.1,-0.16 -0.2,-0.2c-0.05,-0.02 -0.11,-0.04 -0.18,-0.04c-0.06,0 -0.13,0 -0.2,0l-0.52,0c0,0 -0.01,0 -0.02,0c0,0 -0.01,0 -0.02,0c-0.04,0.01 -0.06,0.02 -0.07,0.05c-0.02,0.02 -0.02,0.05 -0.02,0.09c0,0.03 0,0.07 0,0.1l0,0.53c0,0.04 0.01,0.06 0.02,0.09c0.01,0.02 0.03,0.03 0.06,0.03c0.03,0.01 0.06,0.01 0.09,0.02c0.03,0 0.06,0 0.1,0c0.04,0 0.07,0 0.09,0l0.27,0c0,0 0.05,0 0.07,0c0.02,0 0.05,0 0.07,-0.01l0.05,0c0,0 0.05,-0.01 0.08,-0.01c0.02,0 0.04,0 0.06,-0.01c0.05,-0.01 0.1,-0.03 0.13,-0.06c0.04,-0.02 0.07,-0.05 0.1,-0.09c0.02,-0.03 0.03,-0.06 0.04,-0.09c0.01,-0.03 0.01,-0.07 0.02,-0.11l0.01,0z" fill="#ffffff" id="svg_31"/>
   <path d="m152.03,39.1l2.25,0c0.04,0 0.08,0 0.12,0c0.03,0 0.07,0.01 0.09,0.02c0.01,0.01 0.01,0.02 0.02,0.03c0,0.01 0.01,0.03 0.01,0.04l0,0.02c0,0 0,0.03 0,0.05l0,0.22c0,0 0,0.04 0,0.06c0,0.02 0,0.03 -0.01,0.05c-0.01,0.05 -0.04,0.08 -0.09,0.08c-0.04,0 -0.09,0 -0.16,0l-0.45,0c-0.06,0 -0.12,0 -0.16,0.01c-0.04,0 -0.07,0.03 -0.09,0.08c0,0.02 0,0.03 0,0.04c0,0.01 0,0.03 0,0.04c0,0.02 0,0.03 0,0.06c0,0.02 0,0.04 0,0.06l0,2.1c0,0.05 0,0.09 -0.01,0.13c0,0.03 -0.02,0.06 -0.05,0.07c-0.02,0.01 -0.05,0.01 -0.07,0.01l-0.39,0c-0.03,0 -0.06,0 -0.09,0c-0.02,0 -0.04,-0.01 -0.06,-0.03c-0.02,-0.02 -0.02,-0.05 -0.02,-0.09l0,-2.19c0,0 0,-0.04 0,-0.06c0,-0.03 0,-0.05 -0.01,-0.06c0,-0.02 0,-0.03 0,-0.04c0,-0.01 0,-0.02 0,-0.04c-0.01,-0.05 -0.05,-0.08 -0.09,-0.08c-0.05,0 -0.1,-0.01 -0.17,-0.01l-0.41,0c-0.04,0 -0.07,0 -0.11,0c-0.04,0 -0.08,0 -0.1,0c-0.02,-0.02 -0.04,-0.03 -0.05,-0.04c-0.01,-0.02 -0.02,-0.04 -0.02,-0.06c0,-0.02 0,-0.05 0,-0.07l0,-0.22c0,-0.04 0,-0.08 0.01,-0.1c0,-0.03 0.02,-0.06 0.04,-0.07c0.01,0 0.03,-0.01 0.05,-0.02l0.02,0l0,0.01z" fill="#ffffff" id="svg_32"/>
   <path d="m158.83,40.58c0,0 0.01,0.05 0.01,0.09c0,0.05 0,0.08 -0.01,0.1l0,0.05c0,0.03 -0.01,0.06 -0.01,0.1c0,0.03 0,0.06 0,0.09c-0.01,0.02 -0.01,0.04 -0.02,0.07c0,0.02 0,0.04 -0.01,0.06c-0.01,0.05 -0.03,0.11 -0.04,0.16c-0.01,0.04 -0.03,0.1 -0.05,0.15c-0.09,0.21 -0.21,0.38 -0.36,0.52c-0.16,0.14 -0.35,0.24 -0.57,0.31c-0.03,0.01 -0.06,0.03 -0.09,0.03c-0.04,0.01 -0.07,0.01 -0.1,0.02c-0.02,0 -0.03,0.01 -0.05,0.01c-0.02,0 -0.03,0 -0.05,0l-0.14,0.01c0,0 -0.03,0 -0.07,0c-0.02,0 -0.05,0 -0.06,-0.01c-0.01,0 -0.02,0 -0.04,0c-0.01,0 -0.03,0 -0.04,0l-0.05,0c0,0 -0.05,-0.01 -0.07,-0.01c-0.02,0 -0.04,0 -0.06,-0.01c-0.03,0 -0.05,-0.01 -0.07,-0.01c-0.03,0 -0.05,-0.02 -0.07,-0.02c-0.04,-0.01 -0.07,-0.03 -0.11,-0.04c-0.03,-0.01 -0.07,-0.03 -0.1,-0.04c-0.17,-0.08 -0.33,-0.18 -0.45,-0.31c-0.13,-0.13 -0.23,-0.29 -0.3,-0.46c-0.03,-0.05 -0.04,-0.09 -0.05,-0.14c-0.01,-0.05 -0.02,-0.09 -0.04,-0.14c-0.01,-0.01 -0.01,-0.02 -0.01,-0.04c0,-0.01 0,-0.02 0,-0.03c-0.01,-0.02 -0.01,-0.04 -0.02,-0.06c0,-0.02 0,-0.05 -0.01,-0.07c0,-0.02 0,-0.03 0,-0.04c0,-0.02 0,-0.03 0,-0.04c0,-0.02 0,-0.04 0,-0.06c0,-0.02 0,-0.03 0,-0.05c-0.01,-0.02 -0.01,-0.04 -0.01,-0.07c0,-0.04 0,-0.06 0.01,-0.07c0,-0.02 0,-0.03 0,-0.05c0,-0.01 0,-0.02 0,-0.04l0,-0.03c0,0 0.01,-0.03 0,-0.06c0,-0.02 0,-0.03 0.01,-0.05c0,-0.02 0.01,-0.03 0.01,-0.05c0,-0.01 0,-0.03 0.01,-0.05c0.01,-0.05 0.03,-0.1 0.04,-0.15c0.01,-0.04 0.02,-0.09 0.03,-0.14c0.03,-0.05 0.05,-0.1 0.07,-0.15c0.02,-0.05 0.05,-0.1 0.07,-0.15c0.09,-0.14 0.2,-0.26 0.31,-0.36c0.12,-0.09 0.26,-0.17 0.42,-0.24c0.04,-0.02 0.08,-0.03 0.13,-0.04c0.04,-0.01 0.08,-0.02 0.12,-0.03c0.02,-0.01 0.03,-0.01 0.05,-0.01c0.01,0 0.02,0 0.04,0l0.13,-0.01c0,0 0.02,0 0.03,0c0.01,0 0.02,0 0.02,0c0.21,-0.01 0.4,0.01 0.56,0.06c0.15,0.05 0.29,0.12 0.42,0.2c0.03,0.03 0.07,0.06 0.12,0.1c0.04,0.03 0.07,0.07 0.1,0.1c0.02,0.01 0.03,0.03 0.04,0.05c0.02,0.01 0.03,0.03 0.05,0.04c0.03,0.05 0.06,0.1 0.09,0.15c0.04,0.05 0.07,0.1 0.09,0.16c0.02,0.04 0.03,0.08 0.05,0.12c0.01,0.04 0.02,0.08 0.04,0.12c0.01,0.03 0.02,0.06 0.02,0.09c0.01,0.03 0.02,0.07 0.02,0.1c0.01,0.02 0.01,0.04 0.01,0.06c0,0.01 0,0.04 0.01,0.05c0.01,0.02 0.01,0.04 0.01,0.06c0,0.02 0,0.03 0,0.05l0,0.04l-0.01,0.01zm-0.69,0.19c0,0 0.01,-0.04 0.01,-0.06c0,-0.04 0,-0.05 -0.01,-0.07l0,-0.07c0,0 0,-0.02 0,-0.04c0,-0.01 0,-0.02 -0.01,-0.03c0,-0.02 -0.01,-0.05 -0.01,-0.07c0,-0.02 0,-0.04 -0.01,-0.06c0,-0.02 0,-0.03 -0.01,-0.05c-0.01,-0.03 -0.02,-0.06 -0.03,-0.1c-0.01,-0.03 -0.02,-0.06 -0.04,-0.09c-0.06,-0.16 -0.16,-0.28 -0.28,-0.37c-0.12,-0.1 -0.3,-0.14 -0.52,-0.14c-0.01,0 -0.01,0 -0.02,0c-0.01,0 -0.02,0 -0.02,0c-0.01,0 -0.03,0 -0.04,0c-0.01,0 -0.03,0 -0.04,0c-0.03,0.01 -0.06,0.01 -0.1,0.02c-0.03,0.01 -0.05,0.02 -0.08,0.03c-0.12,0.05 -0.23,0.13 -0.3,0.23c-0.08,0.09 -0.13,0.21 -0.18,0.34c-0.01,0.03 -0.01,0.06 -0.02,0.1c0,0.03 -0.01,0.06 -0.02,0.09c0,0.01 0,0.02 0,0.03c0,0.02 0,0.03 -0.01,0.04c0,0.01 0,0.03 0,0.05c0,0.01 0,0.03 0,0.04c0,0.02 -0.01,0.05 -0.01,0.09c0,0.04 0,0.06 0.01,0.08l0,0.05c0,0 0,0.03 0,0.04c0,0.01 0,0.02 0,0.03c0,0.01 0,0.02 0,0.04c0,0.01 0,0.02 0,0.03c0.01,0.03 0.01,0.06 0.02,0.09c0,0.04 0.01,0.07 0.03,0.1c0.03,0.1 0.07,0.18 0.12,0.27c0.05,0.08 0.11,0.15 0.18,0.2c0.01,0.02 0.03,0.03 0.04,0.04c0.02,0.01 0.04,0.02 0.05,0.03c0.04,0.02 0.07,0.03 0.11,0.05c0.04,0.01 0.08,0.02 0.12,0.03c0.02,0.01 0.03,0.01 0.04,0.01c0.02,0 0.03,0 0.05,0c0.01,0 0.03,0.01 0.05,0.01l0.1,0c0,0 0.03,0 0.03,0c0.01,0 0.03,0 0.04,-0.01c0.03,0 0.06,-0.01 0.09,-0.02c0.03,0 0.06,-0.01 0.09,-0.02c0.13,-0.05 0.23,-0.12 0.3,-0.2c0.07,-0.08 0.13,-0.19 0.18,-0.32c0.02,-0.03 0.03,-0.06 0.04,-0.11c0.01,-0.03 0.01,-0.07 0.02,-0.11l0.02,-0.11c0,0 0,-0.02 0,-0.04l0,-0.07l0.02,0z" fill="#ffffff" id="svg_33"/>
   <path d="m160.36,39.09l0.38,0c0.03,0 0.06,0 0.1,0c0.03,0 0.05,0.02 0.07,0.03c0.01,0.03 0.02,0.06 0.02,0.09c0,0.04 0,0.08 0,0.12l0,1.53c0,0 0,0.02 0,0.04c0,0.01 0,0.03 0,0.04l0,0.07c0,0.02 0,0.05 0,0.08c0,0.03 0,0.06 0,0.08c0,0.02 0,0.04 0.01,0.05c0,0.03 0.01,0.07 0.01,0.1c0,0.03 0.01,0.06 0.03,0.09c0.03,0.08 0.08,0.15 0.13,0.2c0.05,0.05 0.12,0.09 0.21,0.12c0.02,0 0.05,0.01 0.07,0.01c0.02,0 0.05,0.01 0.07,0.01c0.02,0.01 0.03,0.01 0.05,0.01c0.01,0 0.02,0 0.03,0c0.01,0 0.04,0 0.06,0c0.03,0 0.05,0 0.06,-0.01l0.06,0c0,0 0.05,-0.01 0.07,-0.01c0.02,0 0.05,-0.01 0.07,-0.01c0.04,-0.01 0.08,-0.02 0.1,-0.03c0.05,-0.03 0.1,-0.06 0.14,-0.1c0.03,-0.04 0.07,-0.08 0.09,-0.14c0.03,-0.07 0.06,-0.16 0.06,-0.27c0.01,-0.11 0.01,-0.22 0.01,-0.33l0,-1.49c0,-0.04 0,-0.09 0,-0.14c0,-0.05 0.01,-0.09 0.03,-0.11c0.02,-0.02 0.04,-0.03 0.06,-0.03c0.03,0 0.06,-0.01 0.09,-0.01l0.29,0c0,0 0.05,0 0.07,0c0.02,0 0.04,0 0.06,0.01c0.05,0 0.07,0.02 0.08,0.04c0.02,0.03 0.03,0.06 0.03,0.11c0,0.04 0,0.08 0,0.11l0,1.51c0,0.11 0,0.22 0,0.33c0,0.11 -0.02,0.21 -0.05,0.29c-0.04,0.14 -0.09,0.27 -0.16,0.37c-0.06,0.1 -0.15,0.19 -0.25,0.26c-0.1,0.07 -0.2,0.12 -0.33,0.16c-0.02,0.01 -0.05,0.02 -0.08,0.02c-0.03,0.01 -0.06,0.01 -0.09,0.02c-0.02,0.01 -0.03,0.01 -0.05,0.01c-0.01,0 -0.03,0 -0.05,0.01c-0.04,0.01 -0.08,0.01 -0.12,0.01c-0.05,0 -0.09,0 -0.13,0c-0.28,0 -0.52,-0.03 -0.73,-0.1c-0.2,-0.08 -0.35,-0.2 -0.47,-0.36c-0.04,-0.05 -0.07,-0.11 -0.1,-0.17c-0.02,-0.05 -0.05,-0.12 -0.07,-0.18c0,-0.02 -0.01,-0.03 -0.01,-0.04c0,-0.01 0,-0.02 -0.01,-0.04c-0.02,-0.08 -0.04,-0.18 -0.04,-0.28l0,-1.97c0,-0.03 0,-0.05 0.02,-0.07c0.02,-0.02 0.04,-0.03 0.07,-0.04l0.02,0c0,0 0.01,0 0.02,0l0,0z" fill="#ffffff" id="svg_34"/>
   <path d="m165.55,39.03c0.58,-0.01 0.98,0.16 1.2,0.52c0.03,0.05 0.05,0.09 0.07,0.14c0.02,0.06 0.03,0.11 0.05,0.17c0,0.02 0.01,0.05 0,0.08c0,0.03 -0.01,0.05 -0.02,0.07c-0.01,0.02 -0.04,0.03 -0.06,0.03c-0.03,0 -0.06,0.01 -0.09,0.01l-0.36,0c0,0 -0.05,0 -0.07,-0.01c-0.04,-0.02 -0.06,-0.04 -0.07,-0.07c0,-0.03 -0.02,-0.06 -0.04,-0.1c-0.01,-0.02 -0.02,-0.05 -0.04,-0.09c-0.03,-0.03 -0.05,-0.06 -0.07,-0.08c-0.04,-0.03 -0.08,-0.06 -0.12,-0.08c-0.04,-0.01 -0.08,-0.02 -0.14,-0.04c-0.05,-0.01 -0.1,-0.01 -0.16,-0.02c-0.06,0 -0.11,0 -0.16,0c-0.05,0.01 -0.1,0.02 -0.14,0.04c-0.07,0.03 -0.13,0.07 -0.16,0.11c-0.04,0.04 -0.06,0.1 -0.08,0.18c0,0.02 0,0.04 0,0.07c0,0.03 0.01,0.05 0.01,0.06c0.03,0.06 0.06,0.11 0.1,0.13c0.05,0.03 0.1,0.05 0.16,0.08c0.03,0.01 0.06,0.03 0.1,0.03c0.04,0.01 0.07,0.02 0.11,0.03c0.08,0.02 0.16,0.05 0.24,0.07c0.09,0.01 0.18,0.04 0.26,0.06c0.01,0.01 0.02,0.01 0.04,0.01c0.02,0 0.03,0 0.05,0.01c0.06,0.02 0.12,0.04 0.18,0.06c0.07,0.02 0.12,0.05 0.17,0.08c0.08,0.05 0.15,0.1 0.21,0.15c0.06,0.05 0.12,0.12 0.16,0.2c0.02,0.02 0.03,0.04 0.04,0.08c0.01,0.02 0.02,0.06 0.03,0.09c0,0.01 0.01,0.01 0.01,0.02c0,0.01 0,0.02 0,0.03c0.01,0.04 0.01,0.1 0.01,0.18c0.01,0.01 0.01,0.03 0,0.04l0,0.08c0,0.03 -0.01,0.07 -0.01,0.09c0,0.04 -0.01,0.06 -0.02,0.09c-0.02,0.06 -0.04,0.11 -0.06,0.15c-0.02,0.05 -0.05,0.09 -0.08,0.13c-0.01,0.02 -0.02,0.03 -0.04,0.04c-0.01,0.01 -0.02,0.02 -0.03,0.04c-0.01,0.02 -0.03,0.04 -0.05,0.05c-0.01,0.02 -0.03,0.03 -0.05,0.05c-0.02,0.01 -0.04,0.02 -0.05,0.04c-0.02,0.01 -0.04,0.02 -0.05,0.04c-0.06,0.03 -0.1,0.05 -0.16,0.08c-0.06,0.02 -0.12,0.04 -0.17,0.06c-0.05,0.02 -0.09,0.02 -0.13,0.03c-0.05,0 -0.09,0.01 -0.14,0.02c-0.02,0 -0.03,0.01 -0.06,0c-0.02,0 -0.03,0 -0.05,0.01l-0.04,0c0,0 -0.01,0 -0.02,0c-0.01,0 -0.02,0 -0.03,0c-0.02,0 -0.04,0 -0.08,0c-0.03,0 -0.06,0 -0.07,0l-0.04,0c0,0 -0.05,-0.01 -0.07,-0.01c-0.02,0 -0.04,0 -0.06,0c-0.01,0 -0.02,0 -0.03,0c-0.01,0 -0.03,0 -0.04,-0.01c-0.04,-0.01 -0.08,-0.01 -0.12,-0.02c-0.03,0 -0.07,-0.01 -0.1,-0.03c-0.15,-0.04 -0.28,-0.1 -0.39,-0.18c-0.11,-0.07 -0.2,-0.17 -0.28,-0.29c-0.05,-0.07 -0.08,-0.15 -0.11,-0.25c-0.01,-0.02 -0.01,-0.04 -0.01,-0.06c0,-0.01 -0.01,-0.04 -0.01,-0.06c0,-0.02 -0.01,-0.05 -0.01,-0.08c0,-0.04 0,-0.06 0.02,-0.08c0.01,-0.03 0.04,-0.04 0.06,-0.04c0.03,0 0.06,-0.01 0.1,-0.01l0.36,0c0,0 0.05,0 0.07,0.01c0.03,0.02 0.05,0.04 0.06,0.08c0,0.03 0.01,0.07 0.02,0.11c0.02,0.03 0.03,0.07 0.05,0.09c0.02,0.03 0.04,0.06 0.06,0.09c0.02,0.01 0.04,0.03 0.05,0.05c0.02,0.01 0.04,0.02 0.05,0.03c0.07,0.05 0.15,0.08 0.25,0.11c0.02,0 0.04,0.01 0.05,0.01c0.02,0 0.05,0 0.07,0.01l0.02,0c0,0 0.06,0.01 0.1,0.01c0.04,0 0.07,0 0.09,-0.01c0.01,0 0.02,0 0.05,0c0.01,0 0.03,0 0.04,0c0.02,0 0.04,-0.01 0.05,-0.01c0.1,-0.03 0.19,-0.07 0.25,-0.11c0.05,-0.04 0.1,-0.12 0.12,-0.23c0,-0.02 0.01,-0.04 0,-0.07c-0.01,-0.02 -0.01,-0.04 -0.02,-0.06c-0.03,-0.08 -0.08,-0.14 -0.15,-0.19c-0.01,0 -0.03,-0.01 -0.05,-0.02c-0.05,-0.03 -0.1,-0.05 -0.15,-0.07c-0.06,-0.01 -0.11,-0.03 -0.16,-0.05c-0.02,0 -0.04,-0.01 -0.06,-0.01c-0.02,0 -0.04,-0.01 -0.07,-0.02c-0.05,-0.02 -0.09,-0.03 -0.14,-0.04c-0.05,-0.01 -0.1,-0.02 -0.15,-0.03c-0.01,-0.01 -0.02,-0.01 -0.03,-0.01c-0.01,0 -0.03,0 -0.04,-0.02c-0.02,0 -0.04,-0.01 -0.06,-0.01c-0.02,0 -0.04,-0.01 -0.06,-0.02c-0.07,-0.02 -0.14,-0.05 -0.2,-0.07c-0.07,-0.03 -0.12,-0.06 -0.18,-0.09c-0.06,-0.04 -0.13,-0.1 -0.18,-0.15c-0.06,-0.06 -0.1,-0.13 -0.14,-0.21c-0.01,-0.02 -0.02,-0.05 -0.02,-0.08c-0.01,-0.03 -0.01,-0.06 -0.03,-0.1c0,-0.02 -0.01,-0.06 -0.01,-0.11c0,-0.05 0,-0.09 0,-0.12c0,-0.01 0,-0.03 0,-0.05c0.01,-0.04 0.01,-0.07 0.02,-0.1c0.01,-0.03 0.02,-0.06 0.03,-0.09c0.04,-0.1 0.1,-0.19 0.17,-0.27c0.07,-0.07 0.15,-0.13 0.25,-0.19c0.06,-0.04 0.12,-0.07 0.19,-0.09c0.07,-0.02 0.14,-0.04 0.22,-0.06c0.03,0 0.06,-0.01 0.09,-0.01c0.02,0 0.05,0 0.08,-0.01c0.01,0 0.02,0 0.04,0c0.02,0 0.04,0 0.04,0l0.02,-0.04z" fill="#ffffff" id="svg_35"/>
   <path d="m168.31,41.81l0,-0.08c0,-0.03 0,-0.06 0.01,-0.07c0.02,-0.03 0.04,-0.04 0.07,-0.05c0.01,0 0.01,0 0.02,0c0.01,0 0.02,0 0.02,0l0.46,0c0.03,0 0.06,0.01 0.08,0.02c0.02,0.02 0.03,0.04 0.03,0.06c0,0.03 0,0.06 0,0.09l0,0.33c0,0.03 0,0.06 0,0.09c0,0.03 -0.01,0.05 -0.03,0.06c-0.02,0.01 -0.04,0.02 -0.07,0.02c-0.03,0 -0.06,0 -0.1,0l-0.3,0c-0.03,0 -0.06,0 -0.09,0c-0.04,0 -0.06,-0.01 -0.07,-0.03c-0.02,-0.01 -0.03,-0.04 -0.03,-0.07c0,-0.02 0,-0.06 0,-0.09l0,-0.28l0,0z" fill="#ffffff" id="svg_36"/>
   <path d="m29.03,16.25l-1.3,0l0,17.22l1.3,0l0,-17.22z" fill="#ffffff" id="svg_37"/>
   <path d="m47.86,33.47l1.3,0l0,-17.22l-1.62,0l-6.53,10.03l-6.59,-10.03l-1.57,0l0,17.22l1.33,0l0,-15.3l6.64,10.08l0.45,0l6.59,-10.08l0,15.3l0,0z" fill="#ffffff" id="svg_38"/>
   <path d="m60.51,17.48c5.73,0 5.73,8.83 0,8.83l-6.23,0l0,-8.83l6.23,0zm0,10.03c7.48,0 7.48,-11.27 0,-11.27l-7.55,0l0,17.23l1.33,0l0,-5.95l6.22,0l0,-0.01z" fill="#ffffff" id="svg_39"/>
   <path d="m84.18,33.47l-7.73,-17.22l-1.45,0l-7.72,17.22l1.43,0l1.86,-4.23l10.29,0l1.89,4.23l1.43,0zm-13.09,-5.46l4.62,-10.48l4.63,10.48l-9.25,0z" fill="#ffffff" id="svg_40"/>
   <path d="m98.7,30.25c-1.48,1.45 -3.45,2.19 -5.4,2.19c-4.96,0 -7.53,-3.49 -7.57,-7.53c-0.03,-4.14 2.56,-7.68 7.57,-7.68c1.95,0 3.89,0.72 5.37,2.19l0.91,-0.79c-1.72,-1.72 -4.01,-2.58 -6.28,-2.58c-5.9,0 -8.9,4.31 -8.85,8.9c0.02,4.66 3.05,8.72 8.85,8.72c2.27,0 4.56,-0.87 6.28,-2.59l-0.88,-0.84l0,0.01z" fill="#ffffff" id="svg_41"/>
   <path d="m106.82,33.47l1.33,0l0,-16.02l6.22,0l0,-1.18l-13.77,0l0,1.18l6.23,0l0,16.02l-0.01,0z" fill="#ffffff" id="svg_42"/>
   <path d="m136.99,30.25c-1.48,1.45 -3.45,2.19 -5.39,2.19c-4.97,0 -7.53,-3.49 -7.58,-7.53c-0.03,-4.14 2.56,-7.68 7.58,-7.68c1.94,0 3.89,0.72 5.37,2.19l0.91,-0.79c-1.72,-1.72 -4.02,-2.58 -6.28,-2.58c-5.91,0 -8.91,4.31 -8.86,8.9c0.02,4.66 3.05,8.72 8.86,8.72c2.26,0 4.56,-0.87 6.28,-2.59l-0.89,-0.84l0,0.01z" fill="#ffffff" id="svg_43"/>
   <path d="m153.5,18.93c-1.7,-2.54 -3.84,-2.93 -6.3,-2.93c-2.83,0 -6.62,1.13 -6.55,4.77c0,3.18 3.23,3.82 6.38,4.43c2.82,0.54 5.68,1.11 5.66,3.69c0,3.06 -3.37,3.64 -5.49,3.64c-2.12,0 -4.82,-1.03 -5.88,-3.12l-1.18,0.59c1.33,2.63 4.38,3.74 7.06,3.74c2.88,0 6.79,-0.94 6.81,-4.83c0,-3.71 -3.44,-4.3 -6.76,-4.94c-2.91,-0.54 -5.27,-1.06 -5.27,-3.25c0,-2.76 3.2,-3.49 5.22,-3.49c1.94,0.03 3.96,0.32 5.21,2.34l1.09,-0.64z" fill="#ffffff" id="svg_44"/>
   <mask fill="#ffffff" height="28" id="mask0_1647_1018" maskUnits="userSpaceOnUse" width="170" x="0" y="16">
    <path d="m169,16l-169,0l0,27.36l169,0l0,-27.36z" fill="#ffffff" id="svg_45"/>
   </mask>
   <g id="svg_46" mask="url(#mask0_1647_1018)">
    <path d="m158.12,17.5l10.58,0l0,-1.25l-11.88,0l0,17.22l12.18,0l0,-1.28l-10.88,0l0,-6.79l10.09,0l0,-1.21l-10.09,0l0,-6.69z" fill="#ffffff" id="svg_47"/>
    <path d="m10.22,18.95c-0.03,-0.37 -0.09,-0.77 -0.18,-1.14c-0.02,-0.25 -0.14,-0.48 -0.25,-0.7c-0.15,-0.35 -0.43,-0.66 -0.74,-0.83c-0.17,-0.09 -0.37,-0.17 -0.54,-0.23c-0.37,-0.11 -0.85,-0.03 -1.19,0.17c-0.11,0.06 -0.26,0.2 -0.4,0.28c-0.26,0.23 -0.45,0.6 -0.54,0.94c0,0.06 0,0.09 -0.03,0.14c-0.02,0.2 -0.06,0.4 -0.06,0.62c0,0.23 0.03,0.46 0.06,0.71c0.06,0.43 0.09,0.89 0.09,1.34c0.03,0.65 0.03,1.33 0,1.99c0,0.63 -0.03,1.22 -0.06,1.85c-0.09,1.19 -0.2,2.38 -0.34,3.55c-0.23,1.62 -0.54,3.24 -0.91,4.83c-0.23,0.82 -0.4,1.64 -0.62,2.47c-0.2,0.82 -0.46,1.61 -0.74,2.44c-0.26,0.74 -0.54,1.48 -0.82,2.19c-0.2,0.45 -0.4,0.88 -0.66,1.28c-0.06,0.08 -0.11,0.19 -0.17,0.31c-0.05,0.02 -0.09,0.08 -0.11,0.14c0,0.03 -0.03,0.03 -0.03,0.06c-0.09,0.09 -0.14,0.15 -0.2,0.23c-0.03,0.03 -0.08,0.06 -0.11,0.09c0,0 -0.03,0 -0.03,0.02c-0.02,0.03 -0.08,0.03 -0.11,0.06c-0.03,0 -0.06,0.03 -0.09,0.03l-0.06,0c-0.03,0 -0.05,-0.03 -0.08,-0.03c-0.03,0 -0.03,-0.02 -0.06,-0.02c-0.03,-0.03 -0.06,-0.06 -0.09,-0.09c0,-0.03 -0.02,-0.03 -0.02,-0.06c-0.03,-0.06 -0.06,-0.08 -0.06,-0.11c-0.03,-0.03 -0.03,-0.06 -0.03,-0.09c-0.03,-0.02 -0.03,-0.06 -0.03,-0.08c-0.02,-0.09 -0.05,-0.17 -0.08,-0.26l0,-0.11c-0.03,-0.06 -0.03,-0.14 -0.03,-0.2l0,-0.43c0.03,-0.05 0.03,-0.08 0.03,-0.11c0,-0.03 0.03,-0.06 0.03,-0.08c0,0 0.05,-0.12 0.03,-0.09c0,-0.03 0.02,-0.06 0.02,-0.09c0,0.02 0.01,0.02 0.03,0c0,-0.05 0.03,-0.11 0.06,-0.14c0.05,-0.11 0.09,-0.11 0.17,-0.19c0.26,-0.29 0.57,-0.43 0.94,-0.51c0.26,-0.09 0.2,-0.51 -0.06,-0.49c-0.74,0.06 -1.42,0.37 -1.84,1c-0.35,0.51 -0.35,1.25 -0.26,1.85c0.03,0.31 0.14,0.59 0.31,0.88c0.17,0.28 0.46,0.48 0.77,0.59c0.51,0.2 1.08,0 1.5,-0.28c0.23,-0.15 0.46,-0.35 0.65,-0.54c0.09,-0.08 0.18,-0.17 0.26,-0.28c0.05,-0.06 0.26,-0.31 0.05,-0.06c0.06,-0.08 0.12,-0.14 0.15,-0.23c0.06,-0.06 0.11,-0.11 0.14,-0.17c0.31,-0.4 0.57,-0.85 0.79,-1.28c0.63,-1.13 1.19,-2.3 1.71,-3.46c0.43,-0.91 0.83,-1.85 1.2,-2.79c-0.04,0.12 -0.09,0.23 -0.15,0.32c0.34,-0.77 0.6,-1.59 0.83,-2.42c0.23,-0.74 0.42,-1.45 0.59,-2.19c0.37,-1.45 0.68,-2.9 0.88,-4.37l0,0.03c0,-0.06 0,-0.09 0.03,-0.15c0.11,-0.94 0.22,-1.84 0.31,-2.76c0.09,-0.9 0.14,-1.79 0.14,-2.69l0,-0.66l0.01,0zm-8.66,22.81c0.02,-0.02 0.06,-0.02 0,0l0,0zm0.08,-0.06c-0.06,0.03 -0.02,0.03 0,0l0,0z" fill="#ffffff" id="svg_48"/>
   </g>
   <path d="m17.89,16l-0.67,0l0,27.01l0.67,0l0,-27.01z" fill="#ffffff" id="svg_49"/>
  </g>
 </g>
</svg>