<svg width="100" height="100" viewBox="0 0 100 100" fill="none" xmlns="http://www.w3.org/2000/svg">
<g opacity="0.2">
<path d="M40.8883 66.2659L37.5 78.125L34.1117 66.2659C32.332 60.037 27.463 55.168 21.2341 53.3883L9.375 50L21.2341 46.6117C27.463 44.832 32.332 39.963 34.1117 33.7341L37.5 21.875L40.8883 33.7341C42.668 39.963 47.537 44.832 53.7659 46.6117L65.625 50L53.7659 53.3883C47.537 55.168 42.668 60.037 40.8883 66.2659Z" stroke="#BDBDBD" stroke-opacity="0.8" stroke-width="4.16667" stroke-linecap="round" stroke-linejoin="round"/>
<path d="M76.0786 36.3106L75 40.625L73.9214 36.3106C72.6618 31.2722 68.7278 27.3382 63.6894 26.0786L59.375 25L63.6894 23.9214C68.7278 22.6618 72.6618 18.7278 73.9214 13.6894L75 9.375L76.0786 13.6894C77.3382 18.7278 81.2722 22.6618 86.3106 23.9214L90.625 25L86.3106 26.0786C81.2722 27.3382 77.3382 31.2722 76.0786 36.3106Z" stroke="#BDBDBD" stroke-opacity="0.8" stroke-width="4.16667" stroke-linecap="round" stroke-linejoin="round"/>
<path d="M70.3927 85.697L68.75 90.625L67.1073 85.697C66.1742 82.8975 63.9775 80.7008 61.178 79.7677L56.25 78.125L61.178 76.4823C63.9775 75.5492 66.1742 73.3525 67.1073 70.553L68.75 65.625L70.3927 70.553C71.3258 73.3525 73.5225 75.5492 76.322 76.4823L81.25 78.125L76.322 79.7677C73.5225 80.7008 71.3258 82.8975 70.3927 85.697Z" stroke="#BDBDBD" stroke-opacity="0.8" stroke-width="4.16667" stroke-linecap="round" stroke-linejoin="round"/>
</g>
</svg>
